<svg width="222" height="123" viewBox="0 0 222 123" fill="none" xmlns="http://www.w3.org/2000/svg">
<g clip-path="url(#clip0_1899_50)">
<path d="M196.798 23.0188C203.356 23.0188 208.673 18.821 208.673 13.6427C208.673 8.46451 203.356 4.26672 196.798 4.26672C190.24 4.26672 184.923 8.46451 184.923 13.6427C184.923 18.821 190.24 23.0188 196.798 23.0188Z" fill="#20537E"/>
<path d="M152.294 38.3437L142.99 23.9198L152.322 36.5426L152.407 31.3797L146.013 20.953L152.43 30.0147L152.582 20.7298L145.632 12.385L152.605 19.2697L153.113 2.32076L153.116 2.25037L153.116 2.32194L153.036 23.8271L160.709 15.1216L153.058 25.6506L153.361 36.0308L153.392 35.7564L162.241 26.5725L153.382 36.7281L153.42 38.0263L153.435 38.0468L153.424 38.1528L153.825 51.8916C153.246 51.9107 152.661 51.9185 152.071 51.9149L152.087 50.8461L144.014 40.3259L152.104 49.8243L152.294 38.3437Z" fill="#3F3D56"/>
<path d="M108.945 46.5849L99.6408 32.161L108.973 44.7838L109.058 39.621L102.664 29.1942L109.082 38.2559L109.234 28.9711L102.283 20.6263L109.257 27.5109L109.764 10.562L109.767 10.4916L109.767 10.5632L109.687 32.0683L117.361 23.3629L109.709 33.8918L110.012 44.2721L110.043 43.9976L118.892 34.8138L110.033 44.9693L110.071 46.2675L110.086 46.288L110.075 46.394L110.476 60.1328C109.897 60.1519 109.312 60.1597 108.722 60.1561L108.739 59.0873L100.666 48.5671L108.755 58.0655L108.945 46.5849Z" fill="#CBCBCB"/>
<path d="M189.6 36.0933L180.296 21.6694L189.629 34.2922L189.713 29.1294L183.32 18.7027L189.737 27.7643L189.889 18.4795L182.938 10.1347L189.912 17.0194L190.42 0.0703923L190.422 0L190.423 0.071576L190.342 21.5767L198.016 12.8713L190.364 23.4003L190.667 33.7805L190.699 33.5061L199.547 24.3222L190.688 34.4777L190.727 35.776L190.741 35.7964L190.73 35.9024L191.132 49.6413C190.553 49.6604 189.968 49.6681 189.377 49.6646L189.394 48.5958L181.321 38.0755L189.411 47.5739L189.6 36.0933Z" fill="#3F3D56"/>
<path d="M29.4355 85.6585C34.855 82.5042 40.5385 79.6428 46.4469 77.0938C62.9718 69.8941 83.2933 63.738 106.396 58.9689C107.984 58.6402 109.585 58.3188 111.199 58.0048C114.627 57.3349 118.112 56.6971 121.653 56.0913C122.528 55.9423 123.405 55.7939 124.285 55.6461C129.214 54.8279 134.241 54.0725 139.366 53.3798C139.469 53.365 139.572 53.3521 139.678 53.3392C140.881 53.1748 142.089 53.016 143.303 52.8626C167.562 49.7504 193.851 48.0382 221.317 48.0123C221.544 48.0105 221.773 48.0105 222 48.0105V123H0C0 109.404 10.7093 96.6539 29.4355 85.6585Z" fill="#F1F1F1"/>
<path d="M73.5454 94.2121C83.0056 88.6581 95.1185 83.684 109.302 79.4894C110.876 79.0221 112.476 78.5659 114.102 78.1208C114.329 78.058 114.558 77.9952 114.787 77.9324C116.858 77.3709 118.968 76.8242 121.118 76.2922C124.75 75.3958 128.486 74.5486 132.325 73.7507C135.073 73.1775 137.869 72.6314 140.714 72.1124C141.628 71.9437 142.545 71.7799 143.467 71.6211C145.562 71.2529 147.683 70.9007 149.828 70.5646C171.759 67.1143 196.214 65.1879 222 65.1879V123H50.8518C50.8518 112.518 59.1095 102.688 73.5454 94.2121Z" fill="#3F3D56"/>
<path d="M69.0586 120L69.482 120.159C70.9194 117.809 72.6747 115.589 74.7174 113.538L74.3478 113.31C72.285 115.384 70.5117 117.627 69.0586 120ZM81.1084 107.511L81.4289 107.78C83.7242 106.095 86.1375 104.513 88.6573 103.041C88.7977 102.958 88.9404 102.875 89.0831 102.792L88.8047 102.494C88.662 102.577 88.5193 102.66 88.3766 102.745C85.8434 104.226 83.4169 105.817 81.1084 107.511ZM97.1162 98.1334L97.3572 98.4492C100.085 97.1489 103.011 95.8708 106.052 94.6499L105.839 94.3192C102.789 95.5457 99.8532 96.8294 97.1162 98.1334ZM114.865 90.9706L115.049 91.3086C118.004 90.2946 121.108 89.3046 124.271 88.3681L124.107 88.0227C120.935 88.961 117.826 89.9529 114.865 90.9706ZM133.518 85.4276L133.661 85.7786C134.489 85.5662 135.319 85.3575 136.159 85.1488C138.447 84.5854 140.81 84.0313 143.184 83.5067L143.058 83.1502C140.679 83.6766 138.311 84.2307 136.019 84.7978C135.18 85.0053 134.346 85.2152 133.518 85.4276ZM155.632 80.6143C154.651 80.7916 153.664 80.9763 152.7 81.161L152.81 81.5193C153.774 81.3365 154.759 81.1518 155.739 80.9726C156.668 80.8027 157.592 80.6365 158.488 80.4831C159.824 80.2486 161.18 80.0177 162.519 79.7997L162.425 79.4377C161.082 79.6575 159.725 79.8865 158.387 80.1211C157.491 80.2763 156.563 80.4425 155.632 80.6143ZM172.213 77.9638L172.294 78.3277C175.516 77.8825 178.823 77.4651 182.122 77.0883L182.054 76.7226C178.751 77.1012 175.441 77.5187 172.213 77.9638ZM191.938 75.7049L191.991 76.0724C195.252 75.7732 198.584 75.5035 201.894 75.269L201.852 74.9014C198.539 75.136 195.203 75.4057 191.938 75.7049ZM211.791 74.3048L211.819 74.6742C215.104 74.5098 218.449 74.3769 221.761 74.279L221.745 73.9095C218.426 74.0093 215.078 74.1423 211.791 74.3048Z" fill="white"/>
<path d="M118.13 102.858C138.8 90.7213 177.577 82.55 222 82.55V123H102.251C102.251 115.667 108.029 108.789 118.13 102.858Z" fill="#F1F1F1"/>
<path opacity="0.2" d="M29.4355 85.6586L73.5454 94.2122L118.13 102.858L222 123H0C0 109.404 10.7093 96.654 29.4355 85.6586Z" fill="black"/>
<path d="M56.248 77.915L54.7493 77.9148L54.036 73.3501H56.2483L56.248 77.915Z" fill="#FFB7B7"/>
<path d="M56.6303 79.0621L51.7972 79.062V79.0137C51.7973 78.6198 51.9955 78.242 52.3483 77.9635C52.701 77.6849 53.1795 77.5285 53.6784 77.5284L56.6304 77.5285L56.6303 79.0621Z" fill="#2F2E41"/>
<path d="M69.4898 77.0431L68.042 77.3501L65.8542 73.0872L67.991 72.6344L69.4898 77.0431Z" fill="#FFB7B7"/>
<path d="M70.2355 78.073L65.5677 79.0622L65.5518 79.0156C65.4225 78.6351 65.4899 78.2297 65.7391 77.8885C65.9884 77.5472 66.3991 77.2982 66.8809 77.196L69.732 76.5918L70.2355 78.073Z" fill="#2F2E41"/>
<path d="M50.0064 56.7449C49.1401 57.6243 51.8628 64.9531 51.9866 65.0509C52.1104 65.1486 51.8628 65.7349 51.8628 65.7349C51.8623 65.8407 51.9057 65.9437 51.9866 66.028C52.1103 66.1257 51.9866 66.2235 51.9866 66.4189C51.9866 66.6143 51.9866 66.6143 52.2341 67.0052C52.3824 67.2827 52.4254 67.5882 52.3579 67.8847L53.9668 75.3112C53.8478 75.3516 53.7479 75.4205 53.6813 75.5082C53.6147 75.5959 53.5846 75.6979 53.5955 75.7997C53.5955 76.1906 56.0707 76.3861 56.937 76.2883C57.8033 76.1906 56.3182 67.4938 56.3182 67.4938C56.3182 67.4938 56.3182 65.2463 56.5657 65.0508C56.8133 64.8554 56.5657 64.8554 56.5657 64.4645C56.5657 64.0737 56.1944 63.4874 56.3182 63.1942C56.442 62.9011 56.5657 58.6992 56.5657 58.6992C56.5657 58.6992 59.4122 62.9011 59.4122 63.4874C59.4122 64.0737 60.2786 65.0508 60.2786 65.0508L65.9716 74.2206C65.9716 74.2206 65.6003 74.8069 65.9716 75.2955C66.3429 75.7841 67.9518 75.3932 69.5606 74.9046C71.1695 74.4161 68.9418 73.6343 68.9418 73.6343L65.4765 65.8326C65.4847 65.5371 65.5261 65.2428 65.6003 64.9531C65.724 64.4645 65.229 64.66 64.8577 64.4645C64.4864 64.2691 64.6102 64.2691 64.8577 63.8782C65.1052 63.4874 64.4864 62.6079 64.4864 62.6079L62.8776 55.3768C62.8776 55.3768 50.8727 55.8654 50.0064 56.7449Z" fill="#2F2E41"/>
<path d="M53.994 39.1306C55.7711 39.1306 57.2118 37.9931 57.2118 36.59C57.2118 35.1868 55.7711 34.0493 53.994 34.0493C52.2169 34.0493 50.7762 35.1868 50.7762 36.59C50.7762 37.9931 52.2169 39.1306 53.994 39.1306Z" fill="#FFB8B8"/>
<path d="M52.7972 39.9049C52.7972 39.9049 48.4074 41.4931 48.0361 42.2749C47.6649 43.0566 50.3777 50.2955 50.3777 50.2955C50.3777 50.2955 50.5423 53.3392 50.0472 54.5119C49.5522 55.6845 49.6351 55.8654 49.6351 55.8654V56.7449C49.6351 57.2335 53.5955 56.8426 55.5756 56.354C57.5558 55.8654 62.63 55.9631 63.1251 55.8654C63.6201 55.7677 62.2972 54.5119 62.2972 54.5119C64.0299 54.4141 62.2972 51.551 62.2972 51.551C62.2972 51.551 62.1201 42.2827 61.6251 41.0124C61.13 39.7421 56.5472 39.5101 56.5472 39.5101L54.2143 40.1329L52.7972 39.9049Z" fill="#3F3D56"/>
<path d="M57.8921 35.9213C58.0577 35.2856 57.9004 34.624 57.4539 34.079C57.1888 33.7592 56.8422 33.4864 56.4362 33.2782C56.0302 33.07 55.5737 32.9308 55.0958 32.8696C54.1503 32.7629 53.1862 32.8918 52.3379 33.2384C51.8244 33.4373 51.2688 33.7041 50.7311 33.5584L50.889 33.7822L50.4891 33.7859L50.6352 34.0477L50.2534 34.0907L50.5487 34.2306C50.1539 34.7857 49.8879 35.392 49.763 36.021C49.6878 36.2696 49.7125 36.5306 49.8336 36.7677C49.9782 36.9907 50.351 37.1209 50.5897 36.9671C50.7395 36.8707 50.7904 36.7014 50.8955 36.5689C51.0005 36.4364 51.2419 36.344 51.367 36.4632L51.6898 35.9537L51.9482 36.1198C52.5705 35.6875 53.2887 35.3497 54.0665 35.1237C54.161 35.0847 54.2655 35.0633 54.3721 35.061C54.4787 35.0587 54.5845 35.0756 54.6815 35.1105C54.97 35.2564 54.9282 35.6297 55.128 35.859C55.4528 36.2318 56.2529 36.077 56.5605 36.4603C56.6509 36.6126 56.712 36.7746 56.7418 36.9412C56.7968 37.1039 56.9293 37.275 57.1281 37.2855C57.5472 36.9442 57.7074 36.4708 57.8921 35.9213Z" fill="#2F2E41"/>
<path d="M65.6587 56.097C65.4944 56.0091 65.3565 55.8939 65.2546 55.7594C65.1528 55.6249 65.0895 55.4744 65.0693 55.3185C65.0491 55.1626 65.0724 55.0052 65.1377 54.8572C65.2029 54.7092 65.3084 54.5743 65.4468 54.462L63.283 51.0576L65.7725 51.2904L67.4456 54.4875C67.6691 54.6836 67.7938 54.9376 67.796 55.2014C67.7983 55.4652 67.6778 55.7205 67.4576 55.9189C67.2373 56.1173 66.9325 56.245 66.601 56.2778C66.2695 56.3106 65.9342 56.2463 65.6587 56.097Z" fill="#FFB8B8"/>
<path d="M63.8762 53.6535L61.3536 47.2061L58.4745 42.277C58.353 42.069 58.293 41.8418 58.2989 41.6127C58.3049 41.3836 58.3767 41.1586 58.5089 40.9546C58.6411 40.7507 58.8303 40.5731 59.0622 40.4353C59.2941 40.2975 59.5626 40.2031 59.8474 40.1593C60.299 40.0916 60.7663 40.1536 61.165 40.3341C61.5637 40.5146 61.8674 40.8018 62.0214 41.1437L67.2718 52.9758C67.3003 53.0401 67.3111 53.1084 67.3036 53.1763C67.2961 53.2441 67.2703 53.3099 67.2281 53.3693C67.1858 53.4287 67.128 53.4803 67.0586 53.5207C66.9891 53.5611 66.9095 53.5893 66.8251 53.6035L64.5833 53.9809C64.5408 53.9881 64.4975 53.9917 64.4541 53.9918C64.3245 53.9917 64.1984 53.9589 64.0944 53.8979C63.9903 53.837 63.9138 53.7513 63.8762 53.6535Z" fill="#3F3D56"/>
<path d="M48.2894 58.3235C48.4256 58.2095 48.5283 58.0733 48.5906 57.9245C48.6528 57.7757 48.6729 57.6179 48.6496 57.4623C48.6262 57.3067 48.56 57.157 48.4554 57.0238C48.3509 56.8906 48.2106 56.7771 48.0445 56.6914L49.2156 52.9963L46.8504 53.6523L46.1009 57.0606C45.9369 57.2905 45.8854 57.5598 45.9562 57.8177C46.0269 58.0755 46.215 58.3039 46.4847 58.4596C46.7545 58.6152 47.0872 58.6874 47.4198 58.6623C47.7525 58.6372 48.0619 58.5167 48.2894 58.3235Z" fill="#FFB8B8"/>
<path d="M48.8834 56.0615C48.841 56.069 48.7977 56.0729 48.7543 56.0732L46.4622 56.091C46.3759 56.0917 46.2905 56.0779 46.2115 56.0504C46.1326 56.023 46.0619 55.9826 46.0043 55.9319C45.9466 55.8812 45.9033 55.8215 45.8772 55.7565C45.8511 55.6916 45.8428 55.6231 45.8529 55.5554L47.7076 43.1039C47.7634 42.7437 47.9805 42.4111 48.3197 42.1663C48.6589 41.9214 49.0979 41.7804 49.5572 41.7688C49.8473 41.7625 50.1354 41.8083 50.3998 41.9029C50.6641 41.9974 50.8979 42.1381 51.0833 42.3144C51.2687 42.4907 51.4009 42.6979 51.47 42.9204C51.5391 43.143 51.5433 43.375 51.4822 43.599L50.0343 48.9053L49.3539 55.6318C49.3442 55.7338 49.2933 55.8307 49.2086 55.908C49.1238 55.9854 49.0099 56.0392 48.8834 56.0615Z" fill="#3F3D56"/>
</g>
<defs>
<clipPath id="clip0_1899_50">
<rect width="222" height="123" fill="white"/>
</clipPath>
</defs>
</svg>
