<svg width="222" height="157" viewBox="0 0 222 157" fill="none" xmlns="http://www.w3.org/2000/svg">
<g clip-path="url(#clip0_1544_121)" filter="url(#filter0_i_1544_121)">
<path d="M113.38 156.117C120.057 156.117 125.47 150.704 125.47 144.027C125.47 137.35 120.057 131.937 113.38 131.937C106.703 131.937 101.29 137.35 101.29 144.027C101.29 150.704 106.703 156.117 113.38 156.117Z" fill="#20537E"/>
<path d="M185.605 155.438C192.369 153.406 199.56 151.288 204.924 146.459C209.717 142.144 212.953 135.555 210.967 129.084C208.986 122.626 203.05 118.319 196.922 116.178C193.446 114.963 189.809 114.289 186.174 113.76C182.223 113.184 178.254 112.713 174.287 112.259C158.224 110.422 142.1 109.299 125.916 108.892C117.93 108.691 109.946 108.695 101.959 108.811C94.8261 108.915 87.3138 108.912 80.6968 105.881C75.5511 103.523 70.8809 99.2343 69.4471 93.5982C67.792 87.0921 70.8448 80.4666 75.2239 75.7546C77.5322 73.2709 80.23 71.1805 83.013 69.2583C86.0322 67.173 89.1566 65.2354 92.3487 63.4268C98.6357 59.8662 105.209 56.836 111.999 54.3677C115.349 53.1496 118.749 52.0987 122.178 51.1293C125.073 50.3107 127.978 49.4909 130.776 48.3756C136.186 46.2195 141.331 42.5672 142.707 36.5797C144.01 30.905 141.812 24.7446 137.959 20.529C133.501 15.6518 126.779 13.5138 120.334 13.1678C113.099 12.7795 106.031 14.5902 99.2302 16.8883C91.9771 19.3394 84.8804 22.1577 77.4742 24.1431C70.1298 26.1099 62.6433 27.5015 55.0828 28.3053C51.3816 28.6994 47.5686 29.1444 43.8454 28.8427C40.7251 28.5898 37.6207 27.6721 35.321 25.4576C33.3492 23.5588 32.1745 20.9492 32.5784 18.1952C32.6517 17.695 33.4116 17.9077 33.3387 18.4048C32.8471 21.7571 35.1259 24.8462 37.9339 26.4286C41.1793 28.2574 45.1285 28.2599 48.7417 28.0507C56.5761 27.5776 64.3576 26.4527 72.0053 24.6878C79.5201 22.9714 86.7665 20.5177 94.0046 17.8967C100.879 15.4073 107.907 12.9777 115.251 12.4385C121.624 11.9707 128.327 12.8991 133.879 16.2293C138.758 19.1561 142.345 24.037 143.489 29.638C144.606 35.1112 143.059 40.6201 138.915 44.4394C134.626 48.394 128.744 50.0846 123.263 51.6418C116.31 53.6167 109.507 55.9253 102.922 58.9228C96.2474 61.9525 89.8459 65.5514 83.7886 69.6796C77.9418 73.6751 72.1717 78.7024 70.3225 85.8304C69.4611 89.1507 69.6201 92.6722 71.0614 95.8083C72.343 98.5969 74.4536 100.943 76.9123 102.752C82.7787 107.068 90.1724 107.955 97.2585 108.043C105.217 108.142 113.176 107.873 121.137 108.004C137.362 108.27 153.554 109.258 169.712 110.967C173.761 111.395 177.805 111.869 181.843 112.388C185.476 112.855 189.121 113.318 192.692 114.147C199.042 115.621 205.222 118.455 209.169 123.84C210.921 126.174 212.006 128.939 212.309 131.842C212.585 134.87 211.844 137.905 210.474 140.599C207.443 146.563 201.766 150.356 195.737 152.848C192.508 154.183 189.158 155.194 185.815 156.198C185.328 156.344 185.12 155.583 185.605 155.438Z" fill="#939393"/>
<path d="M33.0875 24.574C36.5712 24.574 39.3953 21.7499 39.3953 18.2662C39.3953 14.7826 36.5712 11.9585 33.0875 11.9585C29.6038 11.9585 26.7798 14.7826 26.7798 18.2662C26.7798 21.7499 29.6038 24.574 33.0875 24.574Z" fill="#939393"/>
<path d="M76.8475 36.5324C80.3312 36.5324 83.1553 33.7083 83.1553 30.2246C83.1553 26.7409 80.3312 23.9169 76.8475 23.9169C73.3638 23.9169 70.5398 26.7409 70.5398 30.2246C70.5398 33.7083 73.3638 36.5324 76.8475 36.5324Z" fill="#939393"/>
<path d="M113.906 12.6155C117.389 12.6155 120.213 9.79142 120.213 6.30775C120.213 2.82408 117.389 0 113.906 0C110.422 0 107.598 2.82408 107.598 6.30775C107.598 9.79142 110.422 12.6155 113.906 12.6155Z" fill="#939393"/>
<path d="M137.034 39.4235C140.518 39.4235 143.342 36.5994 143.342 33.1157C143.342 29.6321 140.518 26.808 137.034 26.808C133.55 26.808 130.726 29.6321 130.726 33.1157C130.726 36.5994 133.55 39.4235 137.034 39.4235Z" fill="#F2F2F2"/>
<path d="M105.758 70.4365C109.242 70.4365 112.066 67.6125 112.066 64.1288C112.066 60.6451 109.242 57.821 105.758 57.821C102.274 57.821 99.4503 60.6451 99.4503 64.1288C99.4503 67.6125 102.274 70.4365 105.758 70.4365Z" fill="#939393"/>
<path d="M66.0718 85.4175C69.5555 85.4175 72.3795 82.5934 72.3795 79.1098C72.3795 75.6261 69.5555 72.802 66.0718 72.802C62.5881 72.802 59.764 75.6261 59.764 79.1098C59.764 82.5934 62.5881 85.4175 66.0718 85.4175Z" fill="#939393"/>
<path d="M108.123 108.809C111.607 108.809 114.431 105.985 114.431 102.501C114.431 99.0172 111.607 96.1931 108.123 96.1931C104.64 96.1931 101.816 99.0172 101.816 102.501C101.816 105.985 104.64 108.809 108.123 108.809Z" fill="#F2F2F2"/>
<path d="M153.329 121.95C156.813 121.95 159.637 119.126 159.637 115.642C159.637 112.158 156.813 109.334 153.329 109.334C149.845 109.334 147.021 112.158 147.021 115.642C147.021 119.126 149.845 121.95 153.329 121.95Z" fill="#F2F2F2"/>
<path d="M206.156 119.059C209.64 119.059 212.464 116.235 212.464 112.751C212.464 109.267 209.64 106.443 206.156 106.443C202.673 106.443 199.849 109.267 199.849 112.751C199.849 116.235 202.673 119.059 206.156 119.059Z" fill="#939393"/>
<path d="M112.085 17.8729C93.19 18.0063 77.7191 33.361 77.4507 52.2544C77.4482 52.4288 77.4471 53.6554 77.4472 55.2596C77.4474 57.6117 78.3818 59.8675 80.0449 61.5307C81.7081 63.194 83.9638 64.1285 86.3159 64.1288C87.4819 64.1285 88.6364 63.8985 89.7135 63.4519C90.7905 63.0053 91.769 62.3508 92.5931 61.5259C93.4171 60.701 94.0705 59.7218 94.5159 58.6442C94.9614 57.5667 95.1901 56.4119 95.1891 55.246C95.1882 54.1547 95.1877 53.3994 95.1877 53.353C95.1871 50.4331 95.9466 47.5633 97.3915 45.0259C98.8364 42.4885 100.917 40.371 103.429 38.8816C105.94 37.3921 108.796 36.5822 111.716 36.5313C114.635 36.4805 117.518 37.1905 120.079 38.5916C122.641 39.9926 124.794 42.0364 126.327 44.522C127.859 47.0075 128.718 49.8491 128.819 52.7673C128.92 55.6855 128.26 58.5798 126.903 61.1654C125.546 63.751 123.54 65.9388 121.081 67.5138L121.084 67.5175C121.084 67.5175 108.461 75.6439 104.613 86.7917L104.616 86.7925C103.939 89.0763 103.596 91.4459 103.598 93.8278C103.598 94.8069 103.656 103.374 103.767 110.327C103.806 112.726 104.786 115.014 106.497 116.697C108.208 118.379 110.511 119.322 112.911 119.322C114.116 119.322 115.31 119.083 116.423 118.62C117.536 118.157 118.547 117.478 119.397 116.623C120.247 115.768 120.919 114.753 121.375 113.637C121.832 112.521 122.063 111.326 122.055 110.12C122.017 103.752 121.996 96.3371 121.996 95.7989C121.996 88.9538 128.599 82.1335 134.023 77.6859C140.27 72.5643 144.764 65.5847 146.57 57.7116C146.969 56.0906 147.19 54.4307 147.227 52.7617C147.227 48.1587 146.316 43.6012 144.547 39.3518C142.777 35.1024 140.185 31.245 136.918 28.002C133.652 24.7589 129.776 22.1943 125.514 20.4559C121.252 18.7175 116.688 17.8396 112.085 17.8729Z" fill="#20537E"/>
<path d="M221.687 156.448H0.31295C0.23011 156.448 0.150747 156.415 0.0922555 156.356C0.0337638 156.298 0.000915527 156.218 0.000915527 156.135C0.000915527 156.053 0.0337638 155.973 0.0922555 155.914C0.150747 155.856 0.23011 155.823 0.31295 155.823H221.687C221.77 155.823 221.85 155.855 221.908 155.914C221.967 155.973 222 156.052 222 156.135C222 156.218 221.967 156.298 221.908 156.357C221.85 156.415 221.77 156.448 221.687 156.448Z" fill="#3F3D56"/>
<path d="M165.171 71.7496C169.525 71.7496 173.055 68.2195 173.055 63.8649C173.055 59.5103 169.525 55.9802 165.171 55.9802C160.816 55.9802 157.286 59.5103 157.286 63.8649C157.286 68.2195 160.816 71.7496 165.171 71.7496Z" fill="#2F2E41"/>
<path d="M150.601 152.997H147.379L145.846 140.568H150.601L150.601 152.997Z" fill="#A0616A"/>
<path d="M145.077 152.076H151.291V155.989H141.164C141.164 155.475 141.266 154.966 141.462 154.491C141.659 154.017 141.947 153.585 142.31 153.222C142.674 152.859 143.105 152.571 143.58 152.374C144.054 152.177 144.563 152.076 145.077 152.076Z" fill="#2F2E41"/>
<path d="M175.569 152.997H172.347L170.814 140.568H175.57L175.569 152.997Z" fill="#A0616A"/>
<path d="M170.045 152.076H176.259V155.989H166.133C166.133 155.475 166.234 154.966 166.43 154.491C166.627 154.017 166.915 153.585 167.279 153.222C167.642 152.859 168.073 152.571 168.548 152.374C169.023 152.177 169.531 152.076 170.045 152.076Z" fill="#2F2E41"/>
<path d="M163.973 71.7957C167.538 71.7957 170.428 68.9056 170.428 65.3405C170.428 61.7753 167.538 58.8853 163.973 58.8853C160.407 58.8853 157.517 61.7753 157.517 65.3405C157.517 68.9056 160.407 71.7957 163.973 71.7957Z" fill="#A0616A"/>
<path d="M167.82 92.6202L170.708 85.984C171.41 84.4272 171.611 82.691 171.284 81.0151C170.957 79.3392 170.117 77.8061 168.882 76.6275C168.628 76.3766 168.359 76.1422 168.075 75.9257C166.65 74.8108 164.893 74.2032 163.084 74.199C161.867 74.2037 160.666 74.4708 159.562 74.9822C159.467 75.0242 159.376 75.0689 159.281 75.1136C159.1 75.2003 158.921 75.2949 158.747 75.3922C157.616 76.0419 156.653 76.9483 155.936 78.0385C155.219 79.1287 154.769 80.3721 154.621 81.6684L153.346 92.3495C153.026 93.1879 141.588 123.465 145.588 146.58C145.63 146.827 145.751 147.054 145.931 147.228C146.112 147.401 146.343 147.512 146.592 147.545L150.647 148.097C150.943 148.137 151.244 148.064 151.488 147.892C151.732 147.72 151.902 147.462 151.964 147.169L158.768 114.734C158.811 114.533 158.92 114.351 159.077 114.219C159.235 114.086 159.432 114.01 159.638 114.003C159.844 113.997 160.046 114.059 160.213 114.18C160.379 114.302 160.5 114.476 160.556 114.674L170.17 148.783C170.238 149.031 170.386 149.249 170.591 149.405C170.795 149.561 171.045 149.645 171.302 149.645C171.379 149.644 171.456 149.637 171.531 149.624L176.485 148.67C176.773 148.616 177.031 148.457 177.207 148.223C177.384 147.989 177.467 147.697 177.439 147.406C176.711 139.287 172.843 98.6205 167.82 92.6202Z" fill="#2F2E41"/>
<path d="M138.886 70.7124C138.841 71.0962 138.881 71.4851 139.003 71.8518C139.125 72.2185 139.325 72.554 139.591 72.8347C139.856 73.1155 140.18 73.3346 140.539 73.4766C140.899 73.6187 141.285 73.6802 141.67 73.6569L145.279 82.3281L148.008 78.2821L144.163 70.6681C144.081 70.0228 143.765 69.43 143.275 69.0021C142.785 68.5742 142.155 68.3408 141.505 68.3463C140.854 68.3517 140.229 68.5956 139.746 69.0317C139.263 69.4678 138.957 70.0658 138.886 70.7124Z" fill="#A0616A"/>
<path d="M163.615 101.351C163.998 101.306 164.367 101.176 164.695 100.972C165.024 100.768 165.303 100.495 165.514 100.171C165.725 99.8479 165.863 99.482 165.917 99.0995C165.972 98.7169 165.942 98.3271 165.829 97.9575L173.421 92.4281L168.85 90.7166L162.342 96.2298C161.733 96.4599 161.231 96.9053 160.929 97.4815C160.627 98.0576 160.546 98.7246 160.703 99.3559C160.86 99.9872 161.243 100.539 161.78 100.907C162.316 101.275 162.969 101.433 163.615 101.351Z" fill="#A0616A"/>
<path d="M151.239 88.109C150.948 88.1087 150.657 88.0801 150.372 88.0235C149.681 87.8921 149.034 87.5928 148.486 87.1521C147.938 86.7113 147.508 86.1426 147.232 85.4961L142.176 79.3321C142.07 79.2018 141.992 79.0501 141.948 78.8873C141.905 78.7245 141.897 78.5542 141.924 78.388C141.952 78.2217 142.015 78.0633 142.109 77.9233C142.203 77.7833 142.325 77.665 142.469 77.5763L146.065 75.35C146.198 75.2678 146.346 75.2127 146.5 75.1879C146.654 75.1631 146.812 75.169 146.963 75.2054C147.115 75.2419 147.258 75.308 147.385 75.4C147.511 75.4921 147.618 75.6082 147.699 75.7417L151.262 81.6116L158.085 76.5689C158.628 76.284 159.256 76.2042 159.853 76.3438C160.45 76.4835 160.977 76.8334 161.338 77.3296C161.699 77.8258 161.869 78.4352 161.817 79.0465C161.766 79.6577 161.496 80.23 161.057 80.6588L154.247 86.8711C153.447 87.6643 152.365 88.1093 151.239 88.109Z" fill="#2F2E41"/>
<path d="M169.676 97.3795C169.667 97.3795 169.657 97.3795 169.648 97.3792C169.482 97.3752 169.319 97.3364 169.169 97.2653C169.019 97.1942 168.886 97.0924 168.778 96.9665L165.58 93.2362C165.471 93.1091 165.391 92.9604 165.343 92.7999C165.296 92.6393 165.284 92.4706 165.307 92.3049C165.329 92.1391 165.387 91.9801 165.476 91.8383C165.565 91.6965 165.683 91.5752 165.822 91.4824L171.81 87.4908L166.385 80.9695C166.07 80.4435 165.954 79.8214 166.059 79.2171C166.164 78.6128 166.484 78.0665 166.958 77.678C167.433 77.2895 168.032 77.0848 168.645 77.1013C169.258 77.1177 169.845 77.3542 170.298 77.7676L176.891 84.2101C177.409 84.6841 177.806 85.2769 178.045 85.9377C178.284 86.5984 178.36 87.3074 178.265 88.0037C178.17 88.7 177.907 89.3629 177.499 89.9354C177.092 90.5079 176.552 90.973 175.925 91.2907L170.536 97.0081C170.426 97.1253 170.292 97.2187 170.144 97.2826C169.996 97.3464 169.837 97.3794 169.676 97.3795Z" fill="#2F2E41"/>
<path d="M162.331 83.634C162.28 83.634 162.229 83.6307 162.178 83.6242C161.955 83.5972 161.745 83.5068 161.572 83.3638C161.399 83.2209 161.271 83.0313 161.203 82.8177L158.8 75.4509C158.74 75.2647 158.749 75.0629 158.826 74.883C158.903 74.703 159.042 74.5571 159.219 74.472L159.297 74.4352C159.367 74.4016 159.437 74.3683 159.509 74.3365C160.629 73.8169 161.849 73.5458 163.084 73.542C164.687 73.545 166.255 74.016 167.594 74.8973C167.774 75.0168 167.899 75.2021 167.944 75.4132C167.988 75.6243 167.948 75.8444 167.831 76.026L163.324 83.0874C163.218 83.2551 163.072 83.3932 162.898 83.4888C162.724 83.5844 162.529 83.6343 162.331 83.634Z" fill="#E6E6E6"/>
<path d="M171.387 60.3449C172.812 60.3449 173.967 59.1898 173.967 57.7649C173.967 56.3399 172.812 55.1848 171.387 55.1848C169.962 55.1848 168.807 56.3399 168.807 57.7649C168.807 59.1898 169.962 60.3449 171.387 60.3449Z" fill="#2F2E41"/>
<path d="M162.543 54.929C160.73 54.929 158.992 55.6489 157.711 56.9304C156.429 58.2119 155.709 59.95 155.709 61.7623V64.6534H159.265L160.966 61.7623L161.476 64.6534H172.267L169.376 61.7623C169.376 59.95 168.656 58.2119 167.374 56.9304C166.093 55.6489 164.355 54.929 162.543 54.929Z" fill="#2F2E41"/>
<path d="M172.713 55.9976C172.998 55.1055 173.589 54.3425 174.381 53.8428C175.174 53.343 176.117 53.1386 177.045 53.2654C178.689 53.5403 179.989 54.862 180.763 56.3381C181.538 57.8142 181.896 59.4664 182.416 61.05C182.937 62.6336 183.676 64.2258 184.99 65.2509C186.305 66.276 188.322 66.5541 189.613 65.4996C189.466 66.5986 188.976 67.6234 188.215 68.4291C187.453 69.2348 186.457 69.7806 185.368 69.9893C184.279 70.198 183.152 70.059 182.146 69.592C181.14 69.125 180.307 68.3536 179.763 67.387C179.082 66.1749 178.906 64.7543 178.704 63.3787C178.502 62.003 178.24 60.5797 177.426 59.452C176.613 58.3243 175.091 57.5878 173.798 58.1014L172.713 55.9976Z" fill="#2F2E41"/>
<path d="M88.8201 59.9338C86.4679 59.9335 84.2122 58.9989 82.549 57.3357C80.8859 55.6724 79.9515 53.4167 79.9513 51.0645C79.9512 49.4603 79.9524 48.2338 79.9548 48.0594C80.0295 42.5646 81.4133 37.1669 83.9915 32.314C79.7557 38.1126 77.4267 45.0843 77.3266 52.2645C77.3241 52.439 77.323 53.6655 77.3231 55.2697C77.3232 57.6218 78.2577 59.8776 79.9208 61.5409C81.584 63.2041 83.8397 64.1386 86.1918 64.1389C88.1246 64.1382 90.0044 63.5066 91.5455 62.3401C93.0866 61.1736 94.2049 59.5359 94.7304 57.6759C93.1064 59.1322 91.0013 59.9364 88.8201 59.9338Z" fill="#3F3D56"/>
<path d="M112.686 36.5611C115.405 36.6909 118.052 37.4788 120.4 38.857C122.748 40.2353 124.726 42.1627 126.164 44.4738C127.603 46.785 128.459 49.4107 128.66 52.1256C128.86 54.8406 128.398 57.5636 127.315 60.0608C128.882 58.2197 130.035 56.0621 130.693 53.7352C131.351 51.4084 131.5 48.9669 131.129 46.5773C130.758 44.1877 129.877 41.9062 128.544 39.8883C127.212 37.8703 125.46 36.1634 123.408 34.8839C121.356 33.6044 119.052 32.7824 116.654 32.474C114.255 32.1655 111.818 32.3778 109.51 33.0965C107.201 33.8151 105.074 35.0232 103.274 36.6383C101.474 38.2534 100.044 40.2376 99.0806 42.4556C100.746 40.4969 102.838 38.9467 105.197 37.9247C107.556 36.9027 110.118 36.4362 112.686 36.5611Z" fill="#3F3D56"/>
<path d="M115.415 115.126C113.015 115.127 110.712 114.184 109.001 112.502C107.29 110.819 106.31 108.531 106.271 106.132C106.16 99.1787 106.102 90.6118 106.102 89.6326C106.101 87.2508 106.443 84.8812 107.12 82.5974L107.117 82.5966C107.517 81.4503 107.999 80.3347 108.561 79.2585C106.836 81.5567 105.464 84.0991 104.489 86.8018L104.492 86.8026C103.815 89.0863 103.472 91.4559 103.474 93.8378C103.474 94.8169 103.532 103.384 103.643 110.337C103.682 112.736 104.662 115.024 106.373 116.707C108.083 118.389 110.387 119.332 112.786 119.332C114.765 119.331 116.69 118.689 118.273 117.503C119.855 116.316 121.011 114.647 121.565 112.748C119.884 114.281 117.69 115.13 115.415 115.126Z" fill="#3F3D56"/>
<path d="M33.2579 153.117L36.4798 153.116L38.0129 140.688L33.2571 140.688L33.2579 153.117Z" fill="#FFB8B8"/>
<path d="M42.6942 156.108L32.5674 156.109L32.5673 152.196L38.7814 152.196C39.8191 152.196 40.8143 152.608 41.5481 153.342C42.2819 154.075 42.6941 155.07 42.6942 156.108Z" fill="#2F2E41"/>
<path d="M21.6937 153.117L24.9156 153.116L26.4487 140.688L21.6929 140.688L21.6937 153.117Z" fill="#FFB8B8"/>
<path d="M31.13 156.108L21.0032 156.109L21.003 152.196L27.2172 152.196C28.2549 152.196 29.2501 152.608 29.9839 153.342C30.7177 154.075 31.1299 155.07 31.13 156.108Z" fill="#2F2E41"/>
<path d="M24.5094 149.294L21.3621 149.129C21.1998 149.12 21.0408 149.08 20.8943 149.009C20.7479 148.939 20.6168 148.84 20.5088 148.719C20.4008 148.597 20.318 148.455 20.2651 148.302C20.2122 148.148 20.1903 147.985 20.2008 147.823L23.9625 106.175L41.2854 110.849L42.9544 110.394L37.7352 147.264C37.6907 147.541 37.553 147.795 37.3447 147.984C37.1365 148.172 36.8701 148.284 36.5897 148.301L33.197 148.459C33.0273 148.468 32.8576 148.442 32.6984 148.383C32.5393 148.323 32.3943 148.231 32.2724 148.113C32.1506 147.994 32.0547 147.852 31.9908 147.695C31.9268 147.537 31.8962 147.368 31.9009 147.198L32.5156 125.07C32.5185 124.967 32.4829 124.868 32.416 124.79C32.349 124.713 32.2554 124.663 32.1538 124.651C32.0521 124.64 31.9497 124.666 31.8666 124.726C31.7836 124.786 31.7261 124.875 31.7053 124.975L25.7768 148.317C25.7208 148.594 25.5706 148.843 25.3516 149.021C25.1326 149.2 24.8585 149.297 24.5759 149.296C24.5539 149.296 24.5317 149.296 24.5094 149.294Z" fill="#2F2E41"/>
<path d="M33.8363 72.0974C37.4014 72.0974 40.2915 69.2073 40.2915 65.6422C40.2915 62.0771 37.4014 59.187 33.8363 59.187C30.2712 59.187 27.3811 62.0771 27.3811 65.6422C27.3811 69.2073 30.2712 72.0974 33.8363 72.0974Z" fill="#FFB8B8"/>
<path d="M23.0889 84.6074L23.7987 99.9215L24.0552 105.493C24.0655 105.735 24.1478 105.969 24.2917 106.165C24.4357 106.36 24.6347 106.509 24.8632 106.59L41.5094 112.62C41.6439 112.67 41.7863 112.695 41.9298 112.694C42.0938 112.695 42.2562 112.663 42.4074 112.599C42.5586 112.536 42.6955 112.443 42.8099 112.325C42.9243 112.208 43.0139 112.068 43.0733 111.916C43.1327 111.763 43.1606 111.6 43.1555 111.436L42.4731 83.9004C42.4282 81.6413 41.5966 79.4686 40.1216 77.7569C38.6466 76.0452 36.6206 74.9018 34.3929 74.5237C34.2319 74.4991 34.0681 74.4745 33.9043 74.4527C32.5229 74.2812 31.1208 74.4145 29.7965 74.8432C28.4722 75.2719 27.2579 75.9856 26.2391 76.9341C25.1841 77.9044 24.3551 79.0945 23.8108 80.4205C23.2664 81.7464 23.02 83.1758 23.0889 84.6074Z" fill="#939393"/>
<path d="M49.4612 109.564C49.0675 109.442 48.7078 109.23 48.4108 108.944C48.1138 108.658 47.8878 108.307 47.7507 107.918C47.6136 107.529 47.5693 107.114 47.6213 106.705C47.6733 106.296 47.8202 105.905 48.0502 105.563L42.4053 98.0564L47.2765 97.7549L51.8902 104.929C52.3841 105.311 52.7278 105.855 52.861 106.465C52.9942 107.075 52.9084 107.712 52.6186 108.265C52.3288 108.818 51.8536 109.251 51.2762 109.489C50.6989 109.726 50.0563 109.753 49.4612 109.564Z" fill="#FFB8B8"/>
<path d="M45.4923 104.204C45.3427 104.143 45.2067 104.054 45.0921 103.94C44.9774 103.826 44.8865 103.691 44.8244 103.542L36.3199 83.2801C36.1531 82.8834 36.066 82.4577 36.0637 82.0273C36.0615 81.5969 36.144 81.1703 36.3067 80.7719C36.4694 80.3734 36.709 80.0109 37.0118 79.7051C37.3147 79.3993 37.6748 79.1562 38.0716 78.9896C38.4685 78.8231 38.8943 78.7363 39.3246 78.7344C39.755 78.7325 40.1816 78.8154 40.5799 78.9784C40.9782 79.1413 41.3405 79.3812 41.6461 79.6843C41.9516 79.9874 42.1945 80.3477 42.3608 80.7447L50.8652 101.007C50.9909 101.308 50.9923 101.646 50.8691 101.947C50.7459 102.248 50.5082 102.489 50.208 102.615L46.4325 104.2C46.2839 104.263 46.1242 104.295 45.9628 104.296C45.8014 104.297 45.6415 104.266 45.4923 104.204Z" fill="#939393"/>
<path d="M31.761 103.49L39.9293 87.8494C40.0868 87.5486 40.3572 87.3226 40.6812 87.2209C41.0051 87.1193 41.3562 87.1503 41.6573 87.3071L53.5137 93.4992C53.8145 93.6568 54.0405 93.9272 54.1422 94.2511C54.2438 94.5751 54.2128 94.9261 54.056 95.2273L45.8877 110.868C45.7301 111.168 45.4597 111.394 45.1358 111.496C44.8118 111.598 44.4607 111.567 44.1596 111.41L32.3033 105.218C32.0025 105.06 31.7765 104.79 31.6748 104.466C31.5731 104.142 31.6041 103.791 31.761 103.49Z" fill="#3F3D56"/>
<path d="M37.2389 96.3438C37.0937 95.958 36.8603 95.6115 36.5574 95.3319C36.2545 95.0523 35.8904 94.8474 35.4942 94.7335C35.098 94.6196 34.6807 94.5999 34.2756 94.676C33.8704 94.752 33.4886 94.9218 33.1607 95.1716L25.3343 89.9797L25.321 94.8603L32.7551 99.0423C33.1655 99.5128 33.7284 99.8238 34.3452 99.9207C34.9619 100.018 35.5931 99.8944 36.1281 99.5724C36.663 99.2505 37.0675 98.7505 37.2706 98.1601C37.4738 97.5698 37.4625 96.9267 37.2389 96.3438Z" fill="#FFB8B8"/>
<path d="M27.3437 97.4416L20.9474 92.3749C20.2554 92.1426 19.6302 91.7458 19.1254 91.2186C18.6205 90.6915 18.2511 90.0496 18.0489 89.3483C17.8467 88.6469 17.8177 87.907 17.9644 87.192C18.1111 86.477 18.4292 85.8082 18.8912 85.2432L24.6989 77.6319C25.1024 77.1388 25.67 76.8073 26.2979 76.6982C26.9257 76.589 27.5719 76.7094 28.1182 77.0375C28.6646 77.3655 29.0746 77.8792 29.2734 78.4846C29.4722 79.0901 29.4465 79.7469 29.2009 80.3349L24.6058 87.8516L31.3587 91.0546C31.5158 91.1291 31.6552 91.2361 31.7678 91.3684C31.8805 91.5008 31.9637 91.6555 32.0121 91.8224C32.0605 91.9894 32.0729 92.1647 32.0486 92.3367C32.0242 92.5088 31.9636 92.6738 31.8707 92.8207L29.1448 97.1347C29.0527 97.2803 28.931 97.4049 28.7876 97.5005C28.6442 97.5961 28.4824 97.6605 28.3125 97.6895C28.3058 97.6907 28.299 97.6918 28.2922 97.6928C28.1253 97.718 27.955 97.7087 27.7919 97.6655C27.6287 97.6223 27.4762 97.5461 27.3437 97.4416Z" fill="#939393"/>
<path d="M28.9586 69.9648C28.9309 69.8837 28.9222 69.7975 28.933 69.7125C28.9438 69.6276 28.9739 69.5462 29.021 69.4747C29.068 69.4032 29.1309 69.3434 29.2047 69.2999C29.2784 69.2564 29.3612 69.2304 29.4465 69.2239C29.6214 69.2334 29.7925 69.2782 29.9495 69.3557C30.1065 69.4332 30.2462 69.5416 30.3601 69.6746C30.5937 69.9439 30.8657 70.1775 31.1673 70.3677C31.4796 70.5251 31.9031 70.5027 32.0811 70.2026C32.2483 69.9208 32.1337 69.5434 32.0325 69.2161C31.775 68.3833 31.6309 67.5196 31.6041 66.6483C31.575 65.6758 31.7122 64.6608 32.2506 63.9023C32.9455 62.9233 34.188 62.5517 35.3639 62.5786C36.5397 62.6056 37.6965 62.9686 38.8613 63.198C39.2634 63.2772 39.736 63.3177 40.005 63.0061C40.2909 62.6747 40.1859 62.1384 40.0643 61.691C39.7486 60.53 39.4138 59.3296 38.6804 58.392C37.8875 57.4177 36.7549 56.78 35.5106 56.6074C34.316 56.4594 33.1034 56.5971 31.9724 57.0091C30.1297 57.5899 28.5082 58.7194 27.3249 60.2467C26.1051 61.8709 25.578 63.912 25.8589 65.9237C26.1333 67.6758 27.0617 69.2588 28.4571 70.3535L28.9586 69.9648Z" fill="#2F2E41"/>
<path d="M110.716 153.168C108.999 152.42 107.479 151.283 106.276 149.847C105.073 148.411 104.221 146.715 103.786 144.893C103.35 143.071 103.345 141.172 103.769 139.348C104.193 137.523 105.036 135.822 106.23 134.379C104.845 135.39 103.691 136.684 102.845 138.175C101.999 139.666 101.479 141.319 101.321 143.026C101.163 144.733 101.369 146.455 101.927 148.076C102.485 149.697 103.381 151.181 104.556 152.429C105.731 153.677 107.158 154.661 108.743 155.316C110.327 155.97 112.033 156.28 113.747 156.225C115.46 156.17 117.142 155.752 118.681 154.997C120.221 154.242 121.582 153.168 122.674 151.847C120.97 153.093 118.969 153.87 116.871 154.102C114.773 154.333 112.651 154.011 110.716 153.168Z" fill="#3F3D56"/>
</g>
<defs>
<filter id="filter0_i_1544_121" x="0" y="0" width="222" height="160.448" filterUnits="userSpaceOnUse" color-interpolation-filters="sRGB">
<feFlood flood-opacity="0" result="BackgroundImageFix"/>
<feBlend mode="normal" in="SourceGraphic" in2="BackgroundImageFix" result="shape"/>
<feColorMatrix in="SourceAlpha" type="matrix" values="0 0 0 0 0 0 0 0 0 0 0 0 0 0 0 0 0 0 127 0" result="hardAlpha"/>
<feOffset dy="4"/>
<feGaussianBlur stdDeviation="2"/>
<feComposite in2="hardAlpha" operator="arithmetic" k2="-1" k3="1"/>
<feColorMatrix type="matrix" values="0 0 0 0 0 0 0 0 0 0 0 0 0 0 0 0 0 0 0.25 0"/>
<feBlend mode="normal" in2="shape" result="effect1_innerShadow_1544_121"/>
</filter>
<clipPath id="clip0_1544_121">
<rect width="222" height="156.448" fill="white"/>
</clipPath>
</defs>
</svg>
