<svg width="135" height="104" viewBox="0 0 135 104" fill="none" xmlns="http://www.w3.org/2000/svg">
<g clip-path="url(#clip0_1521_87)" filter="url(#filter0_i_1521_87)">
<path d="M118.831 58.9746L121.78 56.0382C121.512 54.0915 121.133 52.1615 120.646 50.2573L118.965 51.1039L120.475 49.6005C119.849 47.2518 119.285 45.736 119.285 45.736C119.285 45.736 113.342 51.7595 110.27 58.8231L112.173 63.8025L109.569 60.6015C109.272 61.4373 109.028 62.2908 108.839 63.1571C106.96 71.8972 108.304 79.5933 111.843 80.3468C115.381 81.1004 119.773 74.626 121.652 65.8859C122.235 63.1763 122.228 60.2104 121.943 57.4072L118.831 58.9746Z" fill="#939393"/>
<path d="M127.595 65.074L131.645 64.0773C132.426 62.2726 133.104 60.4256 133.676 58.5449L131.798 58.4051L133.871 57.8948C134.555 55.5623 134.86 53.9746 134.86 53.9746C134.86 53.9746 126.643 56.0737 120.345 60.5403L119.388 65.782L118.821 61.7022C118.133 62.2649 117.481 62.8701 116.869 63.5143C110.72 70.0294 107.874 77.3094 110.512 79.7745C113.149 82.2397 120.272 78.9566 126.42 72.4414C128.326 70.4217 129.861 67.8794 131.073 65.3328L127.595 65.074Z" fill="#939393"/>
<path d="M88.9439 28.868L89.9388 21.0972C87.2795 18.5005 84.4751 16.0552 81.539 13.7729L80.0128 16.9676L80.5222 12.9889C76.8635 10.2026 74.2634 8.58801 74.2634 8.58801C74.2634 8.58801 72.3808 24.4066 75.9905 38.4781L84.6078 43.7231L77.0077 41.9375C77.5341 43.5261 78.1603 45.0802 78.8827 46.5906C86.2169 61.7944 97.1521 71.7357 103.307 68.7952C109.462 65.8546 108.506 51.1457 101.172 35.9419C98.8981 31.2286 95.4478 26.8093 91.7693 22.9539L88.9439 28.868Z" fill="#939393"/>
<path d="M109.099 27.9021L113.987 21.7617C113.06 18.1709 111.929 14.635 110.601 11.1709L107.635 13.1206L110.138 9.97665C108.453 5.70942 107.066 2.98975 107.066 2.98975C107.066 2.98975 97.2381 15.5628 93.0193 29.4654L97.6717 38.3882L92.0932 32.9501C91.7187 34.5808 91.4475 36.2333 91.2814 37.8978C89.6629 54.6858 93.8603 68.8211 100.657 69.47C107.453 70.119 114.274 57.0357 115.893 40.2478C116.395 35.0434 115.736 29.4854 114.59 24.2928L109.099 27.9021Z" fill="#939393"/>
<path d="M18.9916 30.0102L18.4972 21.8565C15.2667 19.7091 11.9171 17.7448 8.46435 15.9729L7.52295 19.5405L7.26981 15.3658C2.97851 13.2169 0 12.0643 0 12.0643C0 12.0643 1.15272 28.6346 7.59222 42.3553L17.4429 46.0666L9.30833 45.7034C10.157 47.2295 11.1014 48.701 12.1357 50.1091C22.6118 64.2713 35.7522 72.3471 41.4855 68.1469C47.2188 63.9466 43.374 49.0609 32.8979 34.8987C29.6502 30.5082 25.2543 26.6461 20.7344 23.4057L18.9916 30.0102Z" fill="#939393"/>
<path d="M39.4541 25.1319L43.2659 17.8976C41.6159 14.3976 39.7687 10.993 37.7333 7.70004L35.0744 10.2698L37.0261 6.56583C34.4687 2.51884 32.5176 0 32.5176 0C32.5176 0 24.8977 14.7779 23.2836 29.8359L29.7884 38.0802L23.0136 33.5849C22.9475 35.3278 22.9916 37.0732 23.1456 38.8107C24.7577 56.3232 31.8118 69.996 38.9014 69.3496C45.991 68.7033 50.4314 53.9826 48.8194 36.4701C48.3196 31.0411 46.5626 25.4736 44.3764 20.3747L39.4541 25.1319Z" fill="#939393"/>
<path d="M60.7793 98.3344C63.5555 98.3344 65.806 97.6945 65.806 96.9051C65.806 96.1157 63.5555 95.4758 60.7793 95.4758C58.0031 95.4758 55.7526 96.1157 55.7526 96.9051C55.7526 97.6945 58.0031 98.3344 60.7793 98.3344Z" fill="#E6E6E6"/>
<path d="M115.499 103.908C118.275 103.908 120.525 103.269 120.525 102.479C120.525 101.69 118.275 101.05 115.499 101.05C112.723 101.05 110.472 101.69 110.472 102.479C110.472 103.269 112.723 103.908 115.499 103.908Z" fill="#E6E6E6"/>
<path d="M125.983 92.1884C128.759 92.1884 131.01 91.5485 131.01 90.7591C131.01 89.9697 128.759 89.3298 125.983 89.3298C123.207 89.3298 120.956 89.9697 120.956 90.7591C120.956 91.5485 123.207 92.1884 125.983 92.1884Z" fill="#E6E6E6"/>
<path d="M105.374 88.0435C107.475 88.0435 109.179 87.559 109.179 86.9613C109.179 86.3637 107.475 85.8792 105.374 85.8792C103.272 85.8792 101.568 86.3637 101.568 86.9613C101.568 87.559 103.272 88.0435 105.374 88.0435Z" fill="#E6E6E6"/>
<path d="M22.9353 87.0226C24.3234 87.0226 25.4487 86.6752 25.4487 86.2467C25.4487 85.8182 24.3234 85.4708 22.9353 85.4708C21.5472 85.4708 20.4219 85.8182 20.4219 86.2467C20.4219 86.6752 21.5472 87.0226 22.9353 87.0226Z" fill="#E6E6E6"/>
<path d="M13.0254 95.7412C14.4135 95.7412 15.5388 95.3939 15.5388 94.9653C15.5388 94.5368 14.4135 94.1895 13.0254 94.1895C11.6374 94.1895 10.5121 94.5368 10.5121 94.9653C10.5121 95.3939 11.6374 95.7412 13.0254 95.7412Z" fill="#E6E6E6"/>
<path d="M13.0254 82.0202C14.4135 82.0202 15.5388 81.6728 15.5388 81.2443C15.5388 80.8158 14.4135 80.4684 13.0254 80.4684C11.6374 80.4684 10.5121 80.8158 10.5121 81.2443C10.5121 81.6728 11.6374 82.0202 13.0254 82.0202Z" fill="#E6E6E6"/>
<path d="M120.651 83.7492L96.2984 82.8916L83.4558 84.1108L61.5149 86.1932L53.2581 86.9765L34.1365 93.3225C34.0597 93.3479 33.9773 93.3512 33.8987 93.332C33.8202 93.3127 33.7487 93.2716 33.6926 93.2136C33.6366 93.1555 33.5982 93.0829 33.5819 93.004C33.5657 92.9251 33.5722 92.8432 33.6008 92.7679L33.6022 92.7665L36.9184 84.0379L36.5694 83.782L27.4438 77.1087L27.3949 77.073L15.5621 75.2778C15.3955 75.2524 15.2381 75.1852 15.1049 75.0824C14.9717 74.9797 14.8669 74.8449 14.8005 74.6908C14.7341 74.5366 14.7083 74.3681 14.7254 74.2013C14.7426 74.0344 14.8021 73.8747 14.8985 73.7371L32.92 48.0015L42.3904 34.4805L43.4173 33.0126L82.8124 32.4709L121.275 82.5457C121.362 82.6585 121.415 82.7934 121.427 82.9348C121.44 83.0762 121.412 83.2183 121.346 83.3444C121.281 83.4705 121.181 83.5755 121.057 83.6472C120.934 83.7188 120.793 83.7542 120.651 83.7492Z" fill="#20537E"/>
<path opacity="0.2" d="M52.6456 35.1013L36.5691 83.7822L27.4445 77.1089L32.9204 48.0019L42.3632 34.4484L42.3901 34.48L52.6456 35.1013Z" fill="black"/>
<path d="M38.2953 53.7501C36.4711 58.1142 35.8253 61.7593 33.6616 61.1011C30.6993 60.1999 33.8096 57.0124 35.6338 52.6483C37.4579 48.2842 38.7468 44.9365 40.2675 45.2973C43.1024 45.9698 40.1195 49.386 38.2953 53.7501Z" fill="#3F3D56"/>
<path d="M42.4282 45.0147C42.4278 44.7259 42.3702 44.44 42.2587 44.1733C42.1472 43.9067 41.984 43.6645 41.7784 43.4606C41.5729 43.2567 41.329 43.095 41.0607 42.985C40.7924 42.8749 40.5049 42.8184 40.2147 42.8189C40.1648 42.819 40.1155 42.8213 40.0665 42.8246L37.981 42.5686C37.7417 42.4837 37.4894 42.4406 37.2354 42.4412C37.1652 42.4413 37.0959 42.445 37.0275 42.4515L36.9471 42.4416L36.945 42.4611C36.4555 42.5265 36.0022 42.7532 35.6573 43.1049C35.3124 43.4566 35.0958 43.9131 35.0421 44.4016C34.9883 44.8901 35.1005 45.3825 35.3608 45.8002C35.621 46.2178 36.0144 46.5367 36.478 46.7059L36.4736 46.7455L36.6788 46.7683C36.8628 46.8162 37.0523 46.8402 37.2425 46.8398C37.2636 46.8398 37.2844 46.8388 37.3054 46.8382L39.4373 47.0758C39.688 47.1701 39.9538 47.2182 40.2218 47.2176C40.3217 47.2172 40.4215 47.2102 40.5205 47.1965L40.7022 47.2168L40.7033 47.1638C41.1935 47.054 41.6314 46.7813 41.9449 46.3906C42.2585 46 42.429 45.5147 42.4282 45.0147Z" fill="#6C63FF"/>
<path opacity="0.2" d="M42.4282 45.0147C42.4278 44.7259 42.3702 44.44 42.2587 44.1733C42.1472 43.9067 41.984 43.6645 41.7784 43.4606C41.5729 43.2567 41.329 43.095 41.0607 42.985C40.7924 42.8749 40.5049 42.8184 40.2147 42.8189C40.1648 42.819 40.1155 42.8213 40.0665 42.8246L37.981 42.5686C37.7417 42.4837 37.4894 42.4406 37.2354 42.4412C37.1652 42.4413 37.0959 42.445 37.0275 42.4515L36.9471 42.4416L36.945 42.4611C36.4555 42.5265 36.0022 42.7532 35.6573 43.1049C35.3124 43.4566 35.0958 43.9131 35.0421 44.4016C34.9883 44.8901 35.1005 45.3825 35.3608 45.8002C35.621 46.2178 36.0144 46.5367 36.478 46.7059L36.4736 46.7455L36.6788 46.7683C36.8628 46.8162 37.0523 46.8402 37.2425 46.8398C37.2636 46.8398 37.2844 46.8388 37.3054 46.8382L39.4373 47.0758C39.688 47.1701 39.9538 47.2182 40.2218 47.2176C40.3217 47.2172 40.4215 47.2102 40.5205 47.1965L40.7022 47.2168L40.7033 47.1638C41.1935 47.054 41.6314 46.7813 41.9449 46.3906C42.2585 46 42.429 45.5147 42.4282 45.0147Z" fill="white"/>
<path d="M12.9135 75.059L12.6582 74.9257C19.1965 62.524 37.6891 36.0262 37.8751 35.76L38.1118 35.9238C37.9259 36.1899 19.4434 62.673 12.9135 75.059Z" fill="#3F3D56"/>
<path d="M32.941 93.6445L32.663 93.5691C32.7977 93.0763 46.19 44.189 50.8398 35.9421L51.0911 36.0825C46.4586 44.2988 33.0757 93.152 32.941 93.6445Z" fill="#3F3D56"/>
<path d="M122.409 84.1666C115.269 72.4619 88.3065 36.2118 88.0349 35.847L88.2666 35.6763C88.5382 36.0411 115.509 72.3018 122.655 84.0177L122.409 84.1666Z" fill="#3F3D56"/>
<path d="M32.4221 94.9458C32.9793 94.9449 33.4301 94.3662 33.4289 93.6533C33.4278 92.9403 32.9751 92.3631 32.4179 92.364C31.8607 92.3649 31.4099 92.9436 31.4111 93.6565C31.4122 94.3695 31.8649 94.9467 32.4221 94.9458Z" fill="#3F3D56"/>
<path d="M12.979 75.6135C13.5362 75.6126 13.9869 75.034 13.9858 74.321C13.9846 73.6081 13.532 73.0308 12.9748 73.0317C12.4176 73.0326 11.9668 73.6113 11.968 74.3242C11.9691 75.0372 12.4218 75.6144 12.979 75.6135Z" fill="#3F3D56"/>
<path d="M122.676 84.8107C123.233 84.8098 123.684 84.2311 123.683 83.5182C123.682 82.8052 123.229 82.228 122.672 82.2289C122.115 82.2297 121.664 82.8084 121.665 83.5214C121.666 84.2343 122.119 84.8116 122.676 84.8107Z" fill="#3F3D56"/>
<path d="M36.7546 37.1838L91.1324 37.7637C91.0947 33.344 89.3034 29.1182 86.1488 26.0069C82.9942 22.8957 78.7319 21.1511 74.2906 21.1533L53.538 21.1865C44.8577 21.2004 37.5078 27.9559 36.8052 36.5659L36.7546 37.1838Z" fill="#3F3D56"/>
<path opacity="0.2" d="M84.533 55.0721H64.6588C64.4168 55.0719 64.1772 55.1195 63.9538 55.2122C63.7305 55.3049 63.5279 55.4409 63.3578 55.6122C63.1877 55.7834 63.0535 55.9866 62.963 56.2099C62.8725 56.4333 62.8274 56.6723 62.8305 56.9131L62.8477 58.3595L63.0244 73.8443L63.0272 74.143L63.033 74.6361L63.0387 75.1178L63.0718 78.0206C63.0772 78.493 63.2669 78.9448 63.6008 79.2806C63.9347 79.6163 64.3867 79.8098 64.8613 79.8201C64.9101 79.8201 64.9604 79.8187 65.0106 79.8158L69.73 79.53L76.5577 79.1155L78.9677 78.9697L79.5048 78.9368L83.2605 78.7096H83.2619L84.6436 78.6252C85.1083 78.5965 85.5446 78.3927 85.8637 78.0552C86.1828 77.7178 86.3607 77.272 86.3613 76.8086V56.8916C86.3608 56.4092 86.168 55.9467 85.8252 55.6056C85.4824 55.2645 85.0177 55.0727 84.533 55.0721Z" fill="black"/>
<path d="M88.6256 52.5431C88.5538 52.5488 88.4841 52.5703 88.4215 52.606C88.3589 52.6416 88.3051 52.6907 88.2639 52.7495L86.074 52.753V52.1751C86.0735 51.6927 85.8807 51.2302 85.538 50.8891C85.1952 50.548 84.7305 50.3561 84.2457 50.3556H64.3715C64.1295 50.3554 63.8899 50.403 63.6666 50.4957C63.4433 50.5884 63.2407 50.7243 63.0706 50.8956C62.9005 51.0669 62.7663 51.2701 62.6757 51.4934C62.5852 51.7167 62.5402 51.9557 62.5432 52.1965L62.5503 52.7907L61.138 52.7929C61.0606 52.7109 60.9543 52.6619 60.8414 52.6562C60.3464 52.657 59.9469 53.7328 59.949 55.059C59.9512 56.3853 60.3542 57.4598 60.8492 57.459C60.9354 57.4496 61.0182 57.4197 61.0904 57.3718C61.1626 57.3239 61.2221 57.2595 61.264 57.1839L88.271 57.1406C88.3124 57.1993 88.3664 57.2482 88.4291 57.2837C88.4917 57.3192 88.5615 57.3404 88.6334 57.3459C89.1284 57.3451 89.528 56.2693 89.5258 54.943C89.5237 53.6168 89.1206 52.5423 88.6256 52.5431Z" fill="#6C63FF"/>
<path opacity="0.2" d="M88.6256 52.5431C88.5538 52.5488 88.4841 52.5703 88.4215 52.606C88.359 52.6416 88.3051 52.6907 88.2639 52.7495L86.074 52.753V52.1751C86.0735 51.6927 85.8807 51.2302 85.538 50.8891C85.1952 50.548 84.7305 50.3561 84.2457 50.3556H64.3715C64.1296 50.3554 63.8899 50.403 63.6666 50.4957C63.4433 50.5884 63.2407 50.7243 63.0706 50.8956C62.9005 51.0669 62.7663 51.2701 62.6757 51.4934C62.5852 51.7167 62.5402 51.9557 62.5432 52.1965L62.5503 52.7907L61.138 52.7929C61.0606 52.7109 60.9543 52.6619 60.8414 52.6562C60.3464 52.657 59.9469 53.7328 59.949 55.059C59.9512 56.3853 60.3542 57.4598 60.8492 57.459C60.9354 57.4496 61.0182 57.4197 61.0904 57.3718C61.1626 57.3239 61.2221 57.2595 61.264 57.1839L88.271 57.1406C88.3124 57.1993 88.3664 57.2482 88.4291 57.2837C88.4917 57.3192 88.5615 57.3404 88.6334 57.3459C89.1284 57.3451 89.5279 56.2693 89.5258 54.943C89.5237 53.6168 89.1206 52.5423 88.6256 52.5431Z" fill="white"/>
<path d="M86.4008 82.9064C86.2692 83.0289 86.111 83.1194 85.9384 83.1709C85.7658 83.2225 85.5836 83.2335 85.406 83.2033C85.2284 83.1731 85.0602 83.1024 84.9146 82.9968C84.7691 82.8912 84.65 82.7535 84.5668 82.5945L83.4863 80.5299L83.9161 79.603L86.2325 81.0783C86.3824 81.1738 86.5083 81.3021 86.6008 81.4534C86.6933 81.6047 86.7498 81.775 86.766 81.9514C86.7823 82.1277 86.7578 82.3054 86.6945 82.471C86.6312 82.6365 86.5308 82.7854 86.4008 82.9064Z" fill="#FFB8B8"/>
<path d="M91.0682 94.952C91.0425 94.7134 90.9283 94.493 90.7479 94.3339C90.5675 94.1748 90.3339 94.0884 90.0929 94.0918C89.8733 94.0903 89.6596 94.1623 89.4861 94.2961C89.3125 94.43 89.1892 94.6181 89.136 94.83L88.1791 99.4543C88.1475 99.5895 88.1311 99.7278 88.1302 99.8666C88.1302 100.909 89.0072 101.634 90.0929 101.634C91.1786 101.634 92.0561 100.909 92.0561 99.8666C92.0555 99.6996 92.0327 99.5333 91.9882 99.3722L91.0682 94.952Z" fill="#3F3D56"/>
<path d="M98.3063 97.0202C98.209 96.9353 98.1043 96.8591 97.9935 96.7926L94.3378 94.2502C93.9819 94.0278 93.6018 94.0341 93.3258 94.3025C93.2053 94.4166 93.1288 94.5692 93.1096 94.7336C93.0903 94.898 93.1296 95.0639 93.2206 95.2025L95.9808 98.8127C96.0439 98.9003 96.1142 98.9824 96.1912 99.0581C96.6696 99.5903 97.7306 99.6196 98.3137 99.0581C98.8888 98.4873 98.882 97.4701 98.3063 97.0202Z" fill="#3F3D56"/>
<path d="M101.053 93.254H97.351C97.2323 93.2495 97.1167 93.2919 97.0292 93.3718C96.9418 93.4518 96.8896 93.5629 96.8841 93.6809C96.8822 93.7898 96.917 93.8962 96.983 93.983C97.0489 94.0699 97.1422 94.1323 97.2479 94.1602L100.741 95.2355C101.248 95.3532 101.931 94.9032 101.931 94.3413C101.931 93.6265 101.532 93.254 101.053 93.254Z" fill="#3F3D56"/>
<path d="M83.4361 93.6789C83.4323 93.6182 83.4163 93.5589 83.3891 93.5044C83.3619 93.4499 83.3241 93.4013 83.2778 93.3616C83.2315 93.3218 83.1778 93.2917 83.1197 93.2728C83.0615 93.254 83.0002 93.2469 82.9393 93.2519H79.2369C78.7705 93.2519 78.3773 93.7532 78.3773 94.3151C78.3773 94.8771 79.0408 95.3532 79.5497 95.2355L83.0949 94.1603C83.2012 94.1357 83.2948 94.073 83.3577 93.9843C83.4206 93.8955 83.4485 93.7868 83.4361 93.6789Z" fill="#3F3D56"/>
<path d="M85.9772 94.2545L82.3205 96.7858C82.207 96.8494 82.1011 96.9258 82.0051 97.0135C81.7362 97.2623 81.5777 97.6072 81.5644 97.9724C81.5512 98.3375 81.6842 98.6929 81.9342 98.9605C81.957 98.9848 81.9806 99.0083 82.0051 99.031C82.2919 99.3006 82.6715 99.4508 83.0661 99.4508C83.4606 99.4508 83.8402 99.3006 84.1271 99.031C84.2052 98.9566 84.2757 98.8746 84.3374 98.7861L87.0997 95.1963C87.1922 95.0595 87.2325 94.8943 87.2132 94.7306C87.1939 94.5669 87.1164 94.4154 86.9946 94.3037C86.8582 94.1771 86.6812 94.1027 86.4949 94.0937C86.3087 94.0847 86.1253 94.1417 85.9772 94.2545Z" fill="#3F3D56"/>
<path d="M91.6651 89.3074C91.7075 89.2452 91.7311 89.1723 91.7329 89.0972C91.7329 88.654 90.8554 88.3461 89.7697 88.3461C88.684 88.3461 87.8071 88.654 87.8071 89.0972C87.8086 89.1587 87.8254 89.2189 87.856 89.2724L88.8129 91.2377C88.9225 91.4231 89.3178 91.5528 89.7697 91.5515C90.2792 91.5515 90.7024 91.3911 90.745 91.1859L91.6651 89.3074Z" fill="#3F3D56"/>
<path d="M97.9906 89.4408C97.4075 89.2022 96.3465 89.2146 95.8681 89.4408C95.7956 89.4707 95.7254 89.5056 95.6577 89.5451L92.8975 91.0794C92.7098 91.2009 92.754 91.3618 93.0026 91.4619C93.3293 91.5745 93.6833 91.5823 94.0147 91.4841L97.6704 90.4036C97.7763 90.3769 97.8807 90.3446 97.9832 90.3069C98.5589 90.1157 98.5657 89.6834 97.9906 89.4408Z" fill="#3F3D56"/>
<path d="M101.608 91.4454C101.608 91.2066 100.925 91.0154 100.418 91.0654L96.9249 91.5223C96.7161 91.5515 96.561 91.6191 96.561 91.726C96.561 91.833 96.7887 91.9075 97.0279 91.9075H100.73C101.209 91.9075 101.608 91.7492 101.608 91.4454Z" fill="#3F3D56"/>
<path d="M82.7718 91.5224L79.2266 91.0654C78.7177 91.0154 78.0541 91.2177 78.0541 91.4565C78.0541 91.6954 78.4474 91.9084 78.9138 91.9084H82.6162C82.8738 91.9084 83.113 91.8381 83.113 91.7269C83.113 91.6157 83.0026 91.5515 82.7718 91.5224Z" fill="#3F3D56"/>
<path d="M86.6714 91.4614C86.9301 91.3598 86.9606 91.2061 86.7765 91.082L84.0142 89.5564C83.947 89.5161 83.8767 89.4813 83.8039 89.4523C83.1168 89.2145 82.369 89.2145 81.6819 89.4523C81.6574 89.462 81.6338 89.472 81.611 89.4823C81.0903 89.7191 81.1221 90.0896 81.6819 90.3098C81.7847 90.3491 81.8901 90.3814 81.9974 90.4065L85.654 91.4823C85.9871 91.5808 86.3427 91.5735 86.6714 91.4614Z" fill="#3F3D56"/>
<path d="M97.3 88.9893C97.3 94.6725 94.1172 94.7776 90.1911 94.7776C86.2649 94.7776 79.819 93.6533 83.0822 88.9893C86.5239 84.07 92.4282 74.6935 90.191 74.1969C90.191 74.1969 97.3 83.3061 97.3 88.9893Z" fill="#F9A825"/>
<path opacity="0.5" d="M92.6947 92.4864C92.6947 94.736 91.4348 94.7776 89.8807 94.7776C88.3266 94.7776 85.7751 94.3326 87.0668 92.4864C88.4291 90.5392 90.7663 86.8277 89.8808 86.6311C89.8808 86.6311 92.6947 90.2368 92.6947 92.4864Z" fill="#FF6584"/>
<path d="M86.3613 75.7923V76.8086C86.3607 77.2719 86.1828 77.7177 85.8637 78.0552C85.5446 78.3927 85.1083 78.5965 84.6436 78.6252L65.0106 79.8158C64.7634 79.8308 64.5157 79.7957 64.2825 79.7126C64.0493 79.6294 63.8356 79.5 63.6542 79.3321C63.4729 79.1642 63.3277 78.9613 63.2276 78.7359C63.1275 78.5104 63.0744 78.2671 63.0718 78.0206L63.0244 73.8442L74.9003 73.6527L86.3613 75.7923Z" fill="#3F3D56"/>
<path d="M83.1597 80.826L74.3025 76.2479C74.2616 76.2268 74.2258 76.1973 74.1973 76.1613C74.1688 76.1253 74.1483 76.0837 74.1372 76.0393L72.2158 68.3329C72.1044 67.8858 72.1646 67.4133 72.3847 67.008C72.6048 66.6027 72.9689 66.2937 73.4059 66.1415L73.8687 65.9803C73.9719 65.9444 74.0814 65.9299 74.1905 65.9378C74.2995 65.9456 74.4058 65.9757 74.5026 66.0261C74.5995 66.0765 74.685 66.1461 74.7538 66.2307C74.8225 66.3153 74.8731 66.413 74.9023 66.5179L76.7961 73.3026C76.8138 73.3661 76.8507 73.4226 76.9016 73.4647L84.1183 79.4153C84.1805 79.4666 84.2212 79.5393 84.2325 79.6189C84.2437 79.6986 84.2246 79.7796 84.179 79.846L83.5768 80.7219C83.5321 80.7869 83.4649 80.8335 83.3881 80.8526C83.3113 80.8718 83.23 80.8624 83.1597 80.826Z" fill="#E6E6E6"/>
<path d="M77.3248 68.8369C73.029 66.5862 68.5323 65.456 63.7124 66.1276C65.1653 63.6771 66.2443 61.4116 66.1722 59.7156C66.1412 59.1706 66.245 58.6263 66.4744 58.1305C66.7038 57.6347 67.052 57.2024 67.4883 56.8715C68.1904 56.3535 69.0413 56.0741 69.9153 56.0744C70.6957 55.7281 71.58 55.6931 72.3856 55.9767C72.7275 56.1048 73.0384 56.3033 73.298 56.5591C73.5576 56.815 73.7601 57.1224 73.8922 57.4615C74.057 57.8587 74.4117 58.2068 74.9263 58.5134C75.4029 58.7878 75.7913 59.1916 76.0459 59.6775C76.3849 60.3488 76.4082 61.0246 75.964 61.707C77.6274 63.4461 77.6321 66.0593 77.3248 68.8369Z" fill="#2F2E41"/>
<path d="M71.2351 63.2043C72.8969 63.2043 74.2441 61.8636 74.2441 60.2098C74.2441 58.5559 72.8969 57.2152 71.2351 57.2152C69.5732 57.2152 68.226 58.5559 68.226 60.2098C68.226 61.8636 69.5732 63.2043 71.2351 63.2043Z" fill="#FFB8B8"/>
<path d="M72.668 66.698L69.1574 67.0544C69.3458 65.0118 69.4199 63.1269 69.1574 61.707H72.668C72.0013 63.9676 72.0598 65.5789 72.668 66.698Z" fill="#FFB8B8"/>
<path d="M74.5485 66.6208C74.5456 66.9338 74.5389 67.2434 74.5284 67.5498C74.4551 69.7423 74.1779 71.7161 73.4225 73.1697C73.2691 73.4707 73.0858 73.7556 72.8753 74.0201C72.8738 74.0228 72.8719 74.0253 72.8695 74.0273C72.8551 74.0474 72.8392 74.0665 72.8221 74.0844C72.6677 74.2753 72.496 74.4519 72.3094 74.6119L70.8718 76.1126L70.8057 76.1812L70.3863 76.4599L68.2263 77.8921L63.0387 75.1178L63.033 74.6362L63.0272 74.1431C64.1805 72.5165 64.9 70.4012 65.3568 67.9929C65.4817 67.334 65.588 66.6522 65.6785 65.9519C65.7402 65.4673 65.7948 64.9728 65.8422 64.4711C65.8495 64.3171 65.9019 64.1686 65.993 64.0438C65.993 64.0436 65.993 64.0434 65.9931 64.0432C65.9932 64.0431 65.9933 64.0429 65.9934 64.0428C65.9935 64.0426 65.9937 64.0425 65.9939 64.0424C65.994 64.0424 65.9942 64.0423 65.9944 64.0423C66.2156 63.7622 66.6551 63.7679 67.1865 63.7393C67.9319 63.6993 68.6658 63.3148 69.325 63.6779C69.3414 63.6853 69.3572 63.6939 69.3724 63.7036L71.307 65.8418L72.196 64.8885L72.2376 64.8442L74.0688 65.6246C74.2561 65.7051 74.4078 65.8503 74.4959 66.0333C74.5841 66.2164 74.6027 66.4251 74.5485 66.6208Z" fill="#E6E6E6"/>
<path d="M70.4653 77.1302C70.4654 77.4947 70.3962 77.856 70.2614 78.195L69.73 79.5299L65.0106 79.8158C64.9603 79.8186 64.9101 79.8201 64.8612 79.8201C64.3867 79.8098 63.9347 79.6163 63.6008 79.2805C63.2669 78.9447 63.0772 78.493 63.0717 78.0206L63.0387 75.1177L63.033 74.6361L64.7507 75.3607L66.4253 74.466C66.5166 74.4271 66.6101 74.3937 66.7053 74.3659C66.8294 74.3268 66.9561 74.2967 67.0845 74.2759H67.0859C67.1477 74.2659 67.2095 74.2573 67.2712 74.2516C67.981 74.1808 68.6922 74.3726 69.269 74.7904C69.6061 75.0334 69.8859 75.3465 70.089 75.708C70.1046 75.7328 70.1185 75.7586 70.1307 75.7852C70.2449 75.9981 70.3308 76.2249 70.3863 76.4598C70.4386 76.6795 70.4651 76.9044 70.4653 77.1302Z" fill="#2F2E41"/>
<path opacity="0.2" d="M69.1216 68.5874L69.7493 71.4538L73.5635 74.7192L70.1963 71.2969L69.1216 68.5874Z" fill="black"/>
<path opacity="0.2" d="M65.611 69.942L66.7573 74.5764L70.1246 75.7886L66.9723 74.22L65.611 69.942Z" fill="black"/>
<path d="M74.8531 60.3881C72.6354 59.3727 70.1281 59.0832 67.9036 60.1742L68.1902 57.6074L73.062 56.8231L74.8531 60.3881Z" fill="#2F2E41"/>
<path d="M92.6805 82.943L76.3728 80.155L76.5727 79.1746L92.6805 82.943Z" fill="#3F3D56"/>
<path d="M79.0931 80.7675C78.9615 80.89 78.8033 80.9805 78.6307 81.032C78.4581 81.0835 78.2759 81.0946 78.0983 81.0644C77.9207 81.0342 77.7526 80.9635 77.607 80.8579C77.4614 80.7523 77.3423 80.6146 77.2591 80.4555L76.1786 78.391L76.6085 77.4641L78.9248 78.9394C79.0747 79.0349 79.2007 79.1632 79.2931 79.3145C79.3856 79.4658 79.4421 79.6361 79.4584 79.8125C79.4746 79.9888 79.4501 80.1665 79.3868 80.332C79.3235 80.4976 79.2231 80.6465 79.0931 80.7675Z" fill="#FFB8B8"/>
<path d="M75.852 78.687L66.9948 74.1089C66.9539 74.0878 66.9181 74.0583 66.8896 74.0223C66.8611 73.9863 66.8406 73.9447 66.8295 73.9002L64.9082 66.1939C64.7967 65.7468 64.8569 65.2743 65.077 64.869C65.2971 64.4637 65.6612 64.1547 66.0982 64.0025L66.5611 63.8413C66.6642 63.8053 66.7737 63.7908 66.8828 63.7987C66.9918 63.8066 67.0981 63.8367 67.195 63.8871C67.2919 63.9374 67.3773 64.0071 67.4461 64.0917C67.5148 64.1763 67.5654 64.274 67.5946 64.3788L69.4884 71.1635C69.5061 71.227 69.543 71.2836 69.594 71.3257L76.8106 77.2763C76.8728 77.3276 76.9136 77.4002 76.9248 77.4799C76.936 77.5596 76.917 77.6406 76.8713 77.707L76.2691 78.5828C76.2244 78.6479 76.1573 78.6944 76.0804 78.7136C76.0036 78.7328 75.9223 78.7233 75.852 78.687Z" fill="#E6E6E6"/>
<path d="M90.9228 83.4505C91.0011 83.4658 91.0822 83.4496 91.1486 83.4056C91.2149 83.3615 91.2611 83.2931 91.2771 83.2153L91.4404 82.4015C91.4561 82.3235 91.44 82.2426 91.3957 82.1765C91.3514 82.1104 91.2826 82.0645 91.2043 82.0489L88.8372 81.578C88.7589 81.5626 88.6776 81.5787 88.6112 81.6228C88.5448 81.6668 88.4987 81.7353 88.4829 81.8131L88.3195 82.627C88.3118 82.6656 88.3117 82.7053 88.3194 82.7439C88.3271 82.7825 88.3423 82.8192 88.3642 82.852C88.3862 82.8847 88.4144 82.9128 88.4472 82.9347C88.4801 82.9566 88.5169 82.9719 88.5557 82.9796L90.9228 83.4505Z" fill="#E6E6E6"/>
</g>
<defs>
<filter id="filter0_i_1521_87" x="0" y="0" width="134.86" height="107.909" filterUnits="userSpaceOnUse" color-interpolation-filters="sRGB">
<feFlood flood-opacity="0" result="BackgroundImageFix"/>
<feBlend mode="normal" in="SourceGraphic" in2="BackgroundImageFix" result="shape"/>
<feColorMatrix in="SourceAlpha" type="matrix" values="0 0 0 0 0 0 0 0 0 0 0 0 0 0 0 0 0 0 127 0" result="hardAlpha"/>
<feOffset dy="4"/>
<feGaussianBlur stdDeviation="2"/>
<feComposite in2="hardAlpha" operator="arithmetic" k2="-1" k3="1"/>
<feColorMatrix type="matrix" values="0 0 0 0 0 0 0 0 0 0 0 0 0 0 0 0 0 0 0.25 0"/>
<feBlend mode="normal" in2="shape" result="effect1_innerShadow_1521_87"/>
</filter>
<clipPath id="clip0_1521_87">
<rect width="134.86" height="103.909" fill="white"/>
</clipPath>
</defs>
</svg>
