<svg width="222" height="123" viewBox="0 0 222 123" fill="none" xmlns="http://www.w3.org/2000/svg">
<g clip-path="url(#clip0_1544_381)" filter="url(#filter0_i_1544_381)">
<path d="M58.2071 38.5311C65.229 38.5311 70.9214 32.845 70.9214 25.8309C70.9214 18.8168 65.229 13.1307 58.2071 13.1307C51.1852 13.1307 45.4928 18.8168 45.4928 25.8309C45.4928 32.845 51.1852 38.5311 58.2071 38.5311Z" fill="#F7AE40"/>
<path d="M98.0776 64.9683H35.7052C35.6271 64.9693 35.5491 64.9631 35.4721 64.9498L64.9714 13.9094C65.1514 13.5915 65.4127 13.3271 65.7285 13.1431C66.0444 12.9591 66.4035 12.8622 66.7691 12.8622C67.1347 12.8622 67.4938 12.9591 67.8096 13.1431C68.1255 13.3271 68.3867 13.5915 68.5668 13.9094L88.3645 48.1615L89.313 49.8005L98.0776 64.9683Z" fill="#3F3D56"/>
<path opacity="0.2" d="M98.0776 64.9682H76.782L87.2359 49.8004L87.9883 48.7078L88.3645 48.1616L89.3131 49.8004L98.0776 64.9682Z" fill="black"/>
<path d="M132.806 64.9683H78.8591L89.3129 49.8004L90.0652 48.7078L103.688 28.9412C104.581 27.6457 106.729 27.5651 107.779 28.6969C107.85 28.7741 107.915 28.8557 107.975 28.9412L132.806 64.9683Z" fill="#3F3D56"/>
<path d="M148.642 56.5715C150.758 56.5715 152.473 54.8581 152.473 52.7445C152.473 50.6309 150.758 48.9175 148.642 48.9175C146.526 48.9175 144.811 50.6309 144.811 52.7445C144.811 54.8581 146.526 56.5715 148.642 56.5715Z" fill="#20537E"/>
<path d="M149.011 64.2717H148.226L148.584 52.1681L149.011 64.2717Z" fill="#3F3D56"/>
<path d="M148.653 54.4621L149.496 53.2977L148.642 54.7503L148.55 54.5889L148.653 54.4621Z" fill="#3F3D56"/>
<path d="M148.561 55.6377L147.719 54.4736L148.573 55.9259L148.665 55.7645L148.561 55.6377Z" fill="#3F3D56"/>
<path d="M183.786 56.5715C185.902 56.5715 187.617 54.8581 187.617 52.7445C187.617 50.6309 185.902 48.9175 183.786 48.9175C181.67 48.9175 179.955 50.6309 179.955 52.7445C179.955 54.8581 181.67 56.5715 183.786 56.5715Z" fill="#20537E"/>
<path d="M184.155 64.2717H183.371L183.729 52.1681L184.155 64.2717Z" fill="#3F3D56"/>
<path d="M183.798 54.4621L184.64 53.2977L183.786 54.7503L183.694 54.5889L183.798 54.4621Z" fill="#3F3D56"/>
<path d="M183.706 55.6377L182.863 54.4736L183.717 55.9259L183.809 55.7645L183.706 55.6377Z" fill="#3F3D56"/>
<path d="M159.74 52.8992C162.865 52.8992 165.399 50.3687 165.399 47.2471C165.399 44.1255 162.865 41.5949 159.74 41.5949C156.615 41.5949 154.082 44.1255 154.082 47.2471C154.082 50.3687 156.615 52.8992 159.74 52.8992Z" fill="#20537E"/>
<path d="M160.286 64.2717H159.127L159.655 46.3958L160.286 64.2717Z" fill="#3F3D56"/>
<path d="M159.757 49.7836L161.001 48.0643L159.74 50.2094L159.604 49.9709L159.757 49.7836Z" fill="#3F3D56"/>
<path d="M159.621 51.5201L158.377 49.8008L159.638 51.9457L159.774 51.7075L159.621 51.5201Z" fill="#3F3D56"/>
<path d="M173.539 52.8992C176.664 52.8992 179.198 50.3687 179.198 47.2471C179.198 44.1255 176.664 41.5949 173.539 41.5949C170.414 41.5949 167.881 44.1255 167.881 47.2471C167.881 50.3687 170.414 52.8992 173.539 52.8992Z" fill="#20537E"/>
<path d="M174.085 64.2717H172.926L173.454 46.3958L174.085 64.2717Z" fill="#3F3D56"/>
<path d="M173.556 49.7836L174.801 48.0643L173.539 50.2094L173.403 49.9709L173.556 49.7836Z" fill="#3F3D56"/>
<path d="M173.42 51.5201L172.176 49.8008L173.437 51.9457L173.573 51.7075L173.42 51.5201Z" fill="#3F3D56"/>
<path d="M137.748 52.8992C140.873 52.8992 143.406 50.3687 143.406 47.2471C143.406 44.1255 140.873 41.5949 137.748 41.5949C134.623 41.5949 132.09 44.1255 132.09 47.2471C132.09 50.3687 134.623 52.8992 137.748 52.8992Z" fill="#20537E"/>
<path d="M138.293 64.2717H137.134L137.663 46.3958L138.293 64.2717Z" fill="#3F3D56"/>
<path d="M137.765 49.7836L139.009 48.0643L137.748 50.2094L137.612 49.9709L137.765 49.7836Z" fill="#3F3D56"/>
<path d="M137.629 51.5201L136.384 49.8008L137.646 51.9457L137.782 51.7075L137.629 51.5201Z" fill="#3F3D56"/>
<path d="M204.692 123H20.0332C17.7066 123 15.4028 122.542 13.2534 121.653C11.1039 120.764 9.1509 119.46 7.50579 117.817C5.86067 116.173 4.55569 114.223 3.66535 112.076C2.77502 109.928 2.31677 107.627 2.31677 105.303C2.31677 102.979 2.77502 100.678 3.66535 98.531C4.55569 96.3839 5.86067 94.433 7.50579 92.7897C9.1509 91.1464 11.1039 89.8429 13.2534 88.9536C15.4028 88.0642 17.7066 87.6065 20.0332 87.6065H204.284C206.091 87.6065 207.824 86.8894 209.102 85.6129C210.38 84.3365 211.098 82.6052 211.098 80.8C211.098 78.9949 210.38 77.2636 209.102 75.9872C207.824 74.7107 206.091 73.9936 204.284 73.9936H13.9006V63.1033H204.284C208.982 63.1033 213.489 64.9678 216.811 68.2865C220.133 71.6053 222 76.1066 222 80.8C222 85.4935 220.133 89.9948 216.811 93.3135C213.489 96.6323 208.982 98.4968 204.284 98.4968H20.0332C18.226 98.4968 16.4928 99.2139 15.2149 100.49C13.9371 101.767 13.2192 103.498 13.2192 105.303C13.2192 107.108 13.9371 108.84 15.2149 110.116C16.4928 111.393 18.226 112.11 20.0332 112.11H204.692V123Z" fill="#939393"/>
<path d="M29.1639 68.2762H20.7145V68.8207H29.1639V68.2762Z" fill="white"/>
<path d="M53.1492 68.2762H44.6998V68.8207H53.1492V68.2762Z" fill="white"/>
<path d="M77.1344 68.2762H68.6851V68.8207H77.1344V68.2762Z" fill="white"/>
<path d="M101.12 68.2762H92.6703V68.8207H101.12V68.2762Z" fill="white"/>
<path d="M125.105 68.2762H116.656V68.8207H125.105V68.2762Z" fill="white"/>
<path d="M149.09 68.2762H140.641V68.8207H149.09V68.2762Z" fill="white"/>
<path d="M173.076 68.2762H164.626V68.8207H173.076V68.2762Z" fill="white"/>
<path d="M197.061 68.2762H188.611V68.8207H197.061V68.2762Z" fill="white"/>
<path d="M29.1639 92.7794H20.7145V93.3239H29.1639V92.7794Z" fill="white"/>
<path d="M53.1492 92.7794H44.6998V93.3239H53.1492V92.7794Z" fill="white"/>
<path d="M77.1344 92.7794H68.6851V93.3239H77.1344V92.7794Z" fill="white"/>
<path d="M101.12 92.7794H92.6703V93.3239H101.12V92.7794Z" fill="white"/>
<path d="M125.105 92.7794H116.656V93.3239H125.105V92.7794Z" fill="white"/>
<path d="M149.09 92.7794H140.641V93.3239H149.09V92.7794Z" fill="white"/>
<path d="M173.076 92.7794H164.626V93.3239H173.076V92.7794Z" fill="white"/>
<path d="M197.061 92.7794H188.611V93.3239H197.061V92.7794Z" fill="white"/>
<path d="M29.1639 117.283H20.7145V117.827H29.1639V117.283Z" fill="white"/>
<path d="M53.1492 117.283H44.6998V117.827H53.1492V117.283Z" fill="white"/>
<path d="M77.1344 117.283H68.6851V117.827H77.1344V117.283Z" fill="white"/>
<path d="M101.12 117.283H92.6703V117.827H101.12V117.283Z" fill="white"/>
<path d="M125.105 117.283H116.656V117.827H125.105V117.283Z" fill="white"/>
<path d="M149.09 117.283H140.641V117.827H149.09V117.283Z" fill="white"/>
<path d="M173.076 117.283H164.626V117.827H173.076V117.283Z" fill="white"/>
<path d="M197.061 117.283H188.611V117.827H197.061V117.283Z" fill="white"/>
<path d="M148.242 21.6097C149.13 21.6089 150.003 21.8343 150.779 22.2646H145.712C146.486 21.8344 147.357 21.609 148.242 21.6097Z" fill="#E6E6E6"/>
<path d="M138.409 20.9549C139.891 20.9532 141.338 21.4107 142.55 22.2646H134.273C135.483 21.4117 136.928 20.9542 138.409 20.9549Z" fill="#E6E6E6"/>
<path d="M82.7065 12.6653C82.8863 9.48894 84.1896 6.47965 86.3841 4.17393C88.5785 1.8682 91.5215 0.415923 94.6882 0.0760123C97.8549 -0.263899 101.039 0.530656 103.674 2.31802C106.309 4.10538 108.223 6.76936 109.074 9.835C109.237 9.82916 109.399 9.82263 109.564 9.82263C112.467 9.82316 115.292 10.7627 117.617 12.5008C119.941 14.2388 121.64 16.6818 122.458 19.4644C124.382 18.62 126.532 18.4368 128.571 18.9435C130.611 19.4502 132.424 20.6182 133.728 22.2646H91.8072C90.5842 22.2681 89.3731 22.025 88.2464 21.5499C87.1197 21.0748 86.1005 20.3775 85.2499 19.4998C84.3994 18.622 83.7348 17.5818 83.2962 16.4415C82.8575 15.3011 82.6537 14.0841 82.697 12.8633C82.6997 12.7974 82.7028 12.7314 82.7065 12.6653Z" fill="#E6E6E6"/>
<path d="M151.301 31.411C150.413 31.4102 149.54 31.6356 148.764 32.0659H153.832C153.058 31.6357 152.187 31.4103 151.301 31.411Z" fill="#E6E6E6"/>
<path d="M161.135 30.7562C159.652 30.7544 158.205 31.212 156.993 32.0659H165.27C164.06 31.213 162.615 30.7555 161.135 30.7562Z" fill="#E6E6E6"/>
<path d="M216.837 22.4665C216.657 19.2902 215.354 16.2809 213.159 13.9752C210.965 11.6695 208.022 10.2172 204.855 9.87728C201.688 9.53737 198.504 10.3319 195.869 12.1193C193.234 13.9066 191.321 16.5706 190.469 19.6363C190.306 19.6304 190.144 19.6239 189.98 19.6239C187.076 19.6244 184.251 20.564 181.927 22.302C179.602 24.04 177.904 26.4831 177.085 29.2657C175.161 28.4213 173.011 28.2381 170.972 28.7448C168.933 29.2515 167.119 30.4195 165.815 32.0659H207.736C208.959 32.0693 210.17 31.8262 211.297 31.3512C212.424 30.8761 213.443 30.1788 214.293 29.301C215.144 28.4233 215.808 27.3831 216.247 26.2427C216.686 25.1024 216.89 23.8854 216.846 22.6645C216.844 22.5986 216.84 22.5326 216.837 22.4665Z" fill="#E6E6E6"/>
<path d="M188.889 115.39L193.761 115.392L193.761 114.62L188.889 114.617L188.889 115.39Z" fill="#3F3D56"/>
<path d="M153.662 114.791L154.667 115.024L192.872 115.044L193.215 114.245C193.814 112.873 194.02 111.362 193.809 109.881C193.645 108.777 193.232 107.679 192.296 107.203L190.6 95.9233L169.464 95.8856L161.286 102.474C161.286 102.474 157.429 102.405 155.333 105.011C154.577 105.98 154.131 107.154 154.052 108.38L153.97 109.736L153.662 114.791Z" fill="#20537E"/>
<path d="M162.053 119.315C164.659 119.315 166.771 117.205 166.771 114.603C166.771 112 164.659 109.891 162.053 109.891C159.448 109.891 157.336 112 157.336 114.603C157.336 117.205 159.448 119.315 162.053 119.315Z" fill="#3F3D56"/>
<path d="M162.053 117.083C163.424 117.083 164.536 115.973 164.536 114.603C164.536 113.233 163.424 112.123 162.053 112.123C160.682 112.123 159.57 113.233 159.57 114.603C159.57 115.973 160.682 117.083 162.053 117.083Z" fill="#CCCCCC"/>
<path d="M185.332 119.328C187.937 119.328 190.049 117.218 190.049 114.615C190.049 112.013 187.937 109.903 185.332 109.903C182.726 109.903 180.614 112.013 180.614 114.615C180.614 117.218 182.726 119.328 185.332 119.328Z" fill="#3F3D56"/>
<path d="M185.332 117.095C186.703 117.095 187.814 115.985 187.814 114.615C187.814 113.245 186.703 112.135 185.332 112.135C183.96 112.135 182.849 113.245 182.849 114.615C182.849 115.985 183.96 117.095 185.332 117.095Z" fill="#CCCCCC"/>
<path d="M164.535 101.704L175.947 101.709H177.34L179.692 101.71V101.539L179.694 99.4731L179.696 97.1533H178.131L176.738 97.1518L174.27 97.1501H172.877L170.028 97.1483L164.535 101.704Z" fill="white"/>
<path d="M181.549 101.712L187.581 101.716L187.582 100.533V98.4673L187.584 97.1583H186.701L185.308 97.1566L181.551 97.1551L181.549 101.712Z" fill="white"/>
<path d="M178.917 106.578L179.69 106.578L179.691 105.11L178.918 105.11L178.917 106.578Z" fill="#3F3D56"/>
<path d="M167.627 103.791L167.628 103.018L166.158 103.017L166.158 103.79L167.627 103.791Z" fill="#3F3D56"/>
<path d="M167.086 103.358L167.001 103.358C166.789 103.358 166.579 103.316 166.383 103.234C166.187 103.153 166.008 103.034 165.858 102.884C165.708 102.734 165.589 102.556 165.508 102.36C165.427 102.164 165.385 101.954 165.386 101.742C165.386 101.53 165.428 101.32 165.509 101.124C165.59 100.929 165.709 100.751 165.86 100.601C166.01 100.451 166.188 100.332 166.384 100.251C166.58 100.17 166.791 100.128 167.003 100.129L167.088 100.129L167.086 103.358Z" fill="#3F3D56"/>
<path d="M153.969 109.736C154.554 109.799 155.143 109.654 155.631 109.327C156.12 109 156.477 108.511 156.64 107.946C156.803 107.381 156.761 106.777 156.522 106.24C156.283 105.703 155.862 105.268 155.333 105.011C154.577 105.98 154.131 107.154 154.052 108.38L153.969 109.736Z" fill="#3F3D56"/>
<path d="M176.738 97.1519L179.692 101.539L179.694 99.4731L178.131 97.1534L176.738 97.1519Z" fill="#F2F2F2"/>
<path d="M185.308 97.1566L187.582 100.533V98.4674L186.701 97.1584L185.308 97.1566Z" fill="#F2F2F2"/>
<path d="M172.877 97.1501L175.947 101.709H177.34L174.27 97.1501H172.877Z" fill="#F2F2F2"/>
<path d="M12.5378 77.8052C19.4622 77.8052 25.0755 72.1981 25.0755 65.2813C25.0755 58.3646 19.4622 52.7574 12.5378 52.7574C5.61334 52.7574 0 58.3646 0 65.2813C0 72.1981 5.61334 77.8052 12.5378 77.8052Z" fill="#3F3D56"/>
<path d="M12.59 69.0517L6.31562 62.7843C6.11152 62.58 5.99697 62.3031 5.99713 62.0145C5.99729 61.7258 6.11215 61.4491 6.31647 61.245C6.5208 61.0409 6.79788 60.9261 7.08684 60.926C7.3758 60.9258 7.653 61.0402 7.85755 61.2441L12.4856 65.867L27.254 49.0446C27.4448 48.8279 27.7139 48.6957 28.0021 48.677C28.2904 48.6583 28.5743 48.7547 28.7915 48.945C29.0087 49.1352 29.1414 49.4038 29.1605 49.6917C29.1796 49.9797 29.0835 50.2634 28.8934 50.4806L12.59 69.0517Z" fill="#20537E"/>
</g>
<defs>
<filter id="filter0_i_1544_381" x="0" y="0" width="222" height="127" filterUnits="userSpaceOnUse" color-interpolation-filters="sRGB">
<feFlood flood-opacity="0" result="BackgroundImageFix"/>
<feBlend mode="normal" in="SourceGraphic" in2="BackgroundImageFix" result="shape"/>
<feColorMatrix in="SourceAlpha" type="matrix" values="0 0 0 0 0 0 0 0 0 0 0 0 0 0 0 0 0 0 127 0" result="hardAlpha"/>
<feOffset dy="4"/>
<feGaussianBlur stdDeviation="2"/>
<feComposite in2="hardAlpha" operator="arithmetic" k2="-1" k3="1"/>
<feColorMatrix type="matrix" values="0 0 0 0 0 0 0 0 0 0 0 0 0 0 0 0 0 0 0.25 0"/>
<feBlend mode="normal" in2="shape" result="effect1_innerShadow_1544_381"/>
</filter>
<clipPath id="clip0_1544_381">
<rect width="222" height="123" fill="white"/>
</clipPath>
</defs>
</svg>
