<svg width="135" height="125" viewBox="0 0 135 125" fill="none" xmlns="http://www.w3.org/2000/svg">
<g clip-path="url(#clip0_1544_2)" filter="url(#filter0_i_1544_2)">
<path d="M61.9242 68.346C61.9001 68.346 61.8849 68.3453 61.8797 68.345L58.9961 68.3453V67.9202H61.8901C61.9571 67.9226 63.3241 67.9612 64.5837 66.4328C66.4607 64.155 68.0022 58.5163 64.686 44.5887C60.2271 25.861 63.946 9.31618 65.7519 3.07218C65.8409 2.76326 65.8568 2.43789 65.7984 2.12176C65.74 1.80563 65.6089 1.50742 65.4154 1.25068C65.222 0.993941 64.9714 0.785707 64.6837 0.642438C64.3959 0.499168 64.0787 0.424785 63.7572 0.425167H20.6931C20.3657 0.425606 20.0431 0.503237 19.7513 0.651757C19.4595 0.800277 19.2068 1.0155 19.0138 1.27997C18.2488 2.33229 17.199 4.35391 16.542 8.00934L16.1236 7.93419C16.7948 4.19935 17.8788 2.11826 18.6699 1.03001C18.9024 0.711351 19.2068 0.452007 19.5583 0.273041C19.9099 0.0940755 20.2987 0.000529504 20.6931 1.15688e-06H63.7573C64.1446 -0.000371615 64.5268 0.0893468 64.8736 0.262068C65.2203 0.434789 65.5222 0.685781 65.7553 0.995213C65.9883 1.30464 66.1463 1.66404 66.2166 2.045C66.2869 2.42597 66.2677 2.81806 66.1604 3.19031C64.3638 9.40192 60.6641 25.8609 65.0997 44.4903C68.4624 58.6138 66.8458 64.3747 64.8976 66.7205C63.6126 68.2676 62.1967 68.346 61.9242 68.346Z" fill="#E6E6E6"/>
<path d="M54.1649 76.1052C54.1408 76.1052 54.1257 76.1046 54.1204 76.1043L51.2368 76.1046V75.6795H54.1308C54.1982 75.6815 55.5649 75.7205 56.8244 74.1921C58.7014 71.9143 60.2429 66.2756 56.9268 52.3479C52.4678 33.6203 56.1868 17.0755 57.9926 10.8315C58.0816 10.5225 58.0975 10.1972 58.0391 9.88104C57.9807 9.56491 57.8496 9.2667 57.6562 9.00996C57.4627 8.75322 57.2122 8.54498 56.9244 8.40171C56.6366 8.25844 56.3194 8.18406 55.998 8.18444H12.9339C12.6065 8.18488 12.2838 8.26251 11.992 8.41103C11.7002 8.55955 11.4475 8.77478 11.2545 9.03924C10.4895 10.0916 9.43969 12.1132 8.78276 15.7686L8.36429 15.6935C9.03549 11.9586 10.1195 9.87753 10.9106 8.78929C11.1432 8.47063 11.4475 8.21128 11.7991 8.03232C12.1506 7.85335 12.5394 7.75981 12.9339 7.75928H55.998C56.3854 7.75891 56.7675 7.84862 57.1143 8.02135C57.4611 8.19407 57.7629 8.44506 57.996 8.75449C58.2291 9.06392 58.387 9.42332 58.4573 9.80428C58.5276 10.1852 58.5084 10.5773 58.4011 10.9496C56.6045 17.1612 52.9048 33.6202 57.3404 52.2495C60.7031 66.373 59.0866 72.1339 57.1383 74.4797C55.8533 76.0269 54.4374 76.1052 54.1649 76.1052Z" fill="#CCCCCC"/>
<path d="M46.4056 83.8645C46.3815 83.8645 46.3664 83.8639 46.3611 83.8636L3.96075 83.8639C3.55253 83.8644 3.15042 83.7648 2.78959 83.5739C2.42877 83.383 2.12023 83.1065 1.89099 82.7688C1.66174 82.431 1.51878 82.0422 1.4746 81.6364C1.43042 81.2305 1.48638 80.8201 1.63757 80.4409C3.17599 76.5973 5.24741 67.3757 1.83559 48.8002C-2.19315 26.8658 1.41365 18.9387 3.15134 16.5486C3.38386 16.2299 3.68825 15.9706 4.03979 15.7916C4.39134 15.6126 4.78014 15.5191 5.17462 15.5186H48.2387C48.6261 15.5182 49.0083 15.6079 49.355 15.7806C49.7018 15.9533 50.0036 16.2043 50.2367 16.5138C50.4698 16.8232 50.6277 17.1826 50.698 17.5636C50.7683 17.9445 50.7491 18.3366 50.6418 18.7089C48.8453 24.9205 45.1456 41.3795 49.5812 60.0088C52.9439 74.1323 51.3273 79.8932 49.3791 82.239C48.094 83.7862 46.6781 83.8645 46.4056 83.8645ZM5.17462 15.9437C4.8472 15.9442 4.52451 16.0218 4.23271 16.1703C3.94092 16.3188 3.68826 16.5341 3.49523 16.7985C1.78977 19.1443 -1.74526 26.9509 2.25375 48.7233C5.51305 66.4684 3.9323 75.8519 2.03226 80.5989C1.90421 80.9121 1.85614 81.2522 1.89241 81.5886C1.92867 81.925 2.04811 82.2471 2.23997 82.5258C2.4302 82.8072 2.68658 83.0375 2.9866 83.1967C3.28662 83.3559 3.62112 83.439 3.96074 83.4387H46.3715C46.4385 83.442 47.8056 83.4798 49.0651 81.9514C50.9422 79.6736 52.4836 74.0348 49.1675 60.1072C44.7085 41.3796 48.4275 24.8347 50.2334 18.5907C50.3223 18.2818 50.3383 17.9564 50.2799 17.6403C50.2215 17.3242 50.0904 17.026 49.8969 16.7692C49.7034 16.5125 49.4529 16.3043 49.1651 16.161C48.8773 16.0177 48.5602 15.9433 48.2387 15.9437H5.17462Z" fill="#3F3D56"/>
<path d="M40.9139 34.6511H7.11323C6.66219 34.6511 6.22962 34.4719 5.91068 34.153C5.59174 33.834 5.41257 33.4015 5.41257 32.9504C5.41257 32.4994 5.59174 32.0668 5.91068 31.7479C6.22962 31.4289 6.66219 31.2498 7.11323 31.2498H40.9139C41.365 31.2498 41.7976 31.4289 42.1165 31.7479C42.4354 32.0668 42.6146 32.4994 42.6146 32.9504C42.6146 33.4015 42.4354 33.834 42.1165 34.153C41.7976 34.4719 41.365 34.6511 40.9139 34.6511Z" fill="#3F3D56"/>
<path d="M40.9139 41.8789H7.11323C6.66219 41.8789 6.22962 41.6997 5.91068 41.3808C5.59174 41.0618 5.41257 40.6292 5.41257 40.1782C5.41257 39.7272 5.59174 39.2946 5.91068 38.9757C6.22962 38.6567 6.66219 38.4775 7.11323 38.4775H40.9139C41.365 38.4775 41.7976 38.6567 42.1165 38.9757C42.4354 39.2946 42.6146 39.7272 42.6146 40.1782C42.6146 40.6292 42.4354 41.0618 42.1165 41.3808C41.7976 41.6997 41.365 41.8789 40.9139 41.8789Z" fill="#CCCCCC"/>
<path d="M40.9139 49.1067H7.11323C6.66219 49.1067 6.22962 48.9275 5.91068 48.6085C5.59174 48.2896 5.41257 47.857 5.41257 47.406C5.41257 46.9549 5.59174 46.5224 5.91068 46.2034C6.22962 45.8845 6.66219 45.7053 7.11323 45.7053H40.9139C41.365 45.7053 41.7976 45.8845 42.1165 46.2034C42.4354 46.5224 42.6146 46.9549 42.6146 47.406C42.6146 47.857 42.4354 48.2896 42.1165 48.6085C41.7976 48.9275 41.365 49.1067 40.9139 49.1067Z" fill="#CCCCCC"/>
<path d="M43.4649 56.3346H9.66423C9.21318 56.3346 8.78061 56.1554 8.46167 55.8364C8.14274 55.5175 7.96356 55.0849 7.96356 54.6339C7.96356 54.1828 8.14274 53.7503 8.46167 53.4313C8.78061 53.1124 9.21318 52.9332 9.66423 52.9332H43.4649C43.916 52.9332 44.3485 53.1124 44.6675 53.4313C44.9864 53.7503 45.1656 54.1828 45.1656 54.6339C45.1656 55.0849 44.9864 55.5175 44.6675 55.8364C44.3485 56.1554 43.916 56.3346 43.4649 56.3346Z" fill="#CCCCCC"/>
<path d="M43.4649 63.5623H9.66423C9.21318 63.5623 8.78061 63.3832 8.46167 63.0642C8.14274 62.7453 7.96356 62.3127 7.96356 61.8617C7.96356 61.4106 8.14274 60.9781 8.46167 60.6591C8.78061 60.3402 9.21318 60.161 9.66423 60.161H43.4649C43.916 60.161 44.3485 60.3402 44.6675 60.6591C44.9864 60.9781 45.1656 61.4106 45.1656 61.8617C45.1656 62.3127 44.9864 62.7453 44.6675 63.0642C44.3485 63.3832 43.916 63.5623 43.4649 63.5623Z" fill="#CCCCCC"/>
<path d="M23.057 27.4232H7.11323C6.66219 27.4232 6.22962 27.244 5.91068 26.9251C5.59174 26.6061 5.41257 26.1736 5.41257 25.7225C5.41257 25.2715 5.59174 24.8389 5.91068 24.52C6.22962 24.201 6.66219 24.0219 7.11323 24.0219H23.057C23.508 24.0219 23.9406 24.201 24.2595 24.52C24.5784 24.8389 24.7576 25.2715 24.7576 25.7225C24.7576 26.1736 24.5784 26.6061 24.2595 26.9251C23.9406 27.244 23.508 27.4232 23.057 27.4232Z" fill="#3F3D56"/>
<path d="M20.9983 75.2165C21.3414 73.7635 22.9536 73.2872 24.2717 73.3405C25.1045 73.3967 25.9305 73.5274 26.74 73.7311C27.5869 73.9205 28.4256 74.1449 29.2601 74.3829C30.7904 74.8193 32.3049 75.3471 33.8604 75.6883C35.1553 75.9723 36.5625 76.1389 37.8539 75.7468C39.0953 75.3698 40.1484 74.4444 40.4862 73.165C40.8044 71.9593 40.3675 70.6411 39.1992 70.0901C38.1337 69.5877 36.7879 69.8432 36.2599 70.9795C35.6645 72.2606 36.2594 73.6578 37.2021 74.5849C37.738 75.0881 38.3249 75.5339 38.9533 75.9151C39.5912 76.3498 40.3012 76.6678 41.0502 76.8542C42.28 77.1169 43.745 76.7299 44.3792 75.5549C44.5201 75.289 44.6049 74.9969 44.6283 74.6967C44.6658 74.2882 44.0278 74.2908 43.9905 74.6967C43.883 75.8667 42.5129 76.4146 41.4884 76.2863C40.7967 76.1717 40.1363 75.9153 39.5485 75.5334C38.9811 75.2026 38.4435 74.8233 37.9417 74.3997C37.0727 73.6476 36.2581 72.4101 36.8418 71.2366C37.317 70.281 38.5559 70.2905 39.3094 70.9068C40.2219 71.6531 40.0592 73.0077 39.4573 73.894C38.7909 74.8753 37.583 75.2867 36.4442 75.331C35.2067 75.3793 33.9796 75.0953 32.7969 74.7594C31.3274 74.3421 29.8726 73.8751 28.396 73.4823C27.5577 73.2592 26.713 73.0579 25.8596 72.9013C25.0527 72.7235 24.2239 72.6661 23.4001 72.7311C22.0694 72.8847 20.711 73.6594 20.3833 75.047C20.289 75.4461 20.9038 75.6164 20.9983 75.2165Z" fill="#3F3D56"/>
<path d="M86.1549 111.275C86.1916 115.46 86.4982 119.64 87.0728 123.786C87.0929 123.932 87.1148 124.077 87.135 124.223L126.336 124.004C126.451 123.859 126.564 123.713 126.674 123.565C127.04 123.075 127.383 122.571 127.698 122.049C129.211 119.537 129.904 116.596 129.21 114.566L129.197 114.535C129.048 114.091 128.811 113.68 128.502 113.327C126.919 111.545 123.719 111.842 120.814 113.281C123.419 110.429 125.494 106.83 125.651 103.618C125.806 100.485 124.168 98.247 122.391 96.3449C122.332 96.282 122.274 96.2209 122.216 96.1598C122.187 96.1283 122.157 96.0987 122.129 96.0672C120.743 94.6177 119.127 93.1888 116.787 93.3616C114.221 93.5515 111.377 95.7006 109.382 98.2049C107.388 100.707 106.062 103.55 104.719 106.325C103.374 109.098 101.918 111.941 99.7595 114.311C102.683 110.613 105.04 106.406 105.911 102.313C106.782 98.2212 106.016 94.2909 103.41 92.3636C102.619 91.7965 101.704 91.4272 100.74 91.2865C100.628 91.2678 100.514 91.2526 100.398 91.2392C97.9857 90.9648 95.1056 91.799 92.6552 93.7932C89.9567 95.9889 88.0857 99.244 87.1548 102.334C86.224 105.424 86.1248 108.399 86.1549 111.275Z" fill="#F2F2F2"/>
<path d="M111.802 124.085L112.552 124.081C112.79 123.932 113.029 123.785 113.269 123.64C113.418 123.546 113.569 123.455 113.719 123.363C116.205 121.845 118.707 120.388 121.225 118.993C123.74 117.598 126.268 116.266 128.809 114.999C128.876 114.97 128.931 114.918 128.964 114.852C128.997 114.786 129.006 114.711 128.989 114.64C128.986 114.63 128.982 114.621 128.977 114.613C128.941 114.547 128.862 114.519 128.746 114.576C128.435 114.732 128.121 114.889 127.81 115.048C125.262 116.337 122.726 117.69 120.2 119.108C117.676 120.525 115.167 122.004 112.672 123.546C112.619 123.578 112.567 123.612 112.514 123.644C112.276 123.791 112.04 123.938 111.802 124.085Z" fill="white"/>
<path d="M102.137 124.139L102.601 124.136C102.705 123.99 102.808 123.844 102.913 123.698C105.369 120.253 107.825 116.809 110.28 113.364C114.301 107.725 118.32 102.086 122.339 96.4471C122.362 96.4167 122.38 96.382 122.391 96.3449C122.425 96.2201 122.333 96.1469 122.216 96.1598C122.166 96.1669 122.119 96.1844 122.077 96.2113C122.034 96.2382 121.998 96.2738 121.971 96.3157C119.717 99.4781 117.463 102.639 115.21 105.799C111.21 111.41 107.211 117.02 103.212 122.63C102.958 122.986 102.703 123.344 102.449 123.7C102.345 123.846 102.24 123.993 102.137 124.139Z" fill="white"/>
<path d="M91.8108 121.447C91.8345 122.228 91.8862 122.997 91.9537 123.759C91.9668 123.904 91.9799 124.05 91.993 124.196L92.4793 124.193C92.4644 124.047 92.4496 123.902 92.4365 123.756C92.3337 122.656 92.2608 121.543 92.2509 120.4C92.238 117.231 92.5468 114.07 93.1726 110.963C93.8378 107.618 94.7929 104.338 96.0271 101.159C97.3225 97.8061 98.8843 94.5624 100.698 91.4588C100.732 91.4082 100.747 91.3472 100.74 91.2865C100.72 91.1479 100.536 91.1068 100.398 91.2392C100.371 91.2652 100.347 91.2949 100.328 91.3274C100.104 91.7132 99.8836 92.1001 99.6674 92.4881C97.921 95.6089 96.4263 98.864 95.1973 102.222C94.0267 105.412 93.1362 108.697 92.5361 112.041C91.9739 115.144 91.7309 118.295 91.8108 121.447Z" fill="white"/>
<path d="M44.4308 75.3676C44.3502 75.3005 44.2913 75.211 44.2614 75.1104C44.2316 75.0098 44.2322 74.9026 44.2631 74.8024C44.2941 74.7021 44.3541 74.6133 44.4354 74.547C44.5168 74.4808 44.616 74.4401 44.7204 74.4302C45.8799 74.3182 47.05 74.4381 48.1627 74.783L59.4966 78.2833C59.6434 78.3286 59.7797 78.4024 59.8979 78.5004C60.0161 78.5984 60.1138 78.7187 60.1855 78.8545C60.2572 78.9902 60.3015 79.1388 60.3158 79.2917C60.33 79.4446 60.3141 79.5988 60.2688 79.7455C60.2235 79.8922 60.1497 80.0285 60.0517 80.1467C59.9537 80.2649 59.8334 80.3627 59.6976 80.4344C59.5618 80.5061 59.4133 80.5503 59.2604 80.5646C59.1075 80.5789 58.9533 80.5629 58.8066 80.5176L47.4727 77.0173C46.3593 76.6747 45.3253 76.1139 44.4308 75.3676Z" fill="#3F3D56"/>
<path d="M90.8903 89.9082C90.5824 89.7791 90.3066 89.584 90.0822 89.3367C89.8579 89.0895 89.6905 88.7961 89.5918 88.4771C89.4932 88.1581 89.4656 87.8214 89.5112 87.4907C89.5567 87.16 89.6742 86.8432 89.8554 86.5628L87.9127 76.4031L92.8641 76.0171L93.163 85.9547C93.6139 86.2903 93.926 86.7797 94.0402 87.3301C94.1544 87.8804 94.0628 88.4536 93.7826 88.9409C93.5025 89.4282 93.0533 89.7959 92.5202 89.9741C91.9872 90.1524 91.4072 90.129 90.8903 89.9082Z" fill="#FFB8B8"/>
<path d="M87.6071 84.6647L82.564 61.1781C82.3569 60.2134 82.5415 59.206 83.0772 58.3774C83.6129 57.5488 84.4557 56.967 85.4204 56.7599C86.3851 56.5528 87.3925 56.7374 88.2211 57.2731C89.0496 57.8087 89.6315 58.6516 89.8386 59.6163L94.8817 83.1028C94.9347 83.3508 94.8871 83.6097 94.7494 83.8227C94.6117 84.0357 94.3952 84.1854 94.1473 84.239L88.7433 85.3992C88.6204 85.4257 88.4936 85.4276 88.37 85.405C88.2464 85.3824 88.1285 85.3356 88.023 85.2674C87.9175 85.1992 87.8264 85.1109 87.7551 85.0075C87.6837 84.9041 87.6335 84.7876 87.6071 84.6647Z" fill="#3F3D56"/>
<path d="M79.3296 121.611H76.7235L75.4836 111.558L79.3302 111.559L79.3296 121.611Z" fill="#FFB8B8"/>
<path d="M74.8619 120.866H79.8882V124.031H71.6972C71.6972 123.615 71.779 123.204 71.9381 122.82C72.0971 122.436 72.3302 122.087 72.6241 121.793C72.918 121.499 73.2668 121.266 73.6508 121.107C74.0348 120.948 74.4463 120.866 74.8619 120.866Z" fill="#2F2E41"/>
<path d="M88.0455 121.399H85.4395L84.1995 111.346L88.0462 111.346L88.0455 121.399Z" fill="#FFB8B8"/>
<path d="M83.5778 120.654H88.6041V123.819H80.4131C80.4131 123.403 80.4949 122.991 80.654 122.607C80.813 122.223 81.0461 121.875 81.34 121.581C81.6339 121.287 81.9827 121.054 82.3667 120.895C82.7507 120.736 83.1622 120.654 83.5778 120.654Z" fill="#2F2E41"/>
<path d="M76.2071 119.736C76.1094 119.656 76.0287 119.557 75.9697 119.445C75.9107 119.333 75.8746 119.211 75.8635 119.085L72.8337 85.7563C72.8219 85.6269 72.8366 85.4965 72.8769 85.373C72.9172 85.2495 72.9823 85.1355 73.0681 85.038C73.1538 84.9404 73.2586 84.8614 73.3759 84.8056C73.4933 84.7499 73.6207 84.7186 73.7505 84.7137L88.9459 84.1438C89.0774 84.139 89.2085 84.1612 89.331 84.2093C89.4535 84.2574 89.5648 84.3302 89.6579 84.4232C89.7509 84.5162 89.8238 84.6274 89.872 84.7499C89.9202 84.8723 89.9426 85.0034 89.9378 85.1349L88.7231 118.335C88.7142 118.568 88.6211 118.789 88.4611 118.958C88.3012 119.127 88.0853 119.232 87.8537 119.253L84.7898 119.532C84.6627 119.543 84.5347 119.529 84.4131 119.491C84.2915 119.452 84.1789 119.389 84.0819 119.306C83.9849 119.224 83.9055 119.122 83.8482 119.008C83.791 118.894 83.7572 118.77 83.7487 118.643L82.3426 97.5507C82.3416 97.5102 82.3325 97.4702 82.316 97.4333C82.2994 97.3963 82.2756 97.363 82.246 97.3353C82.2164 97.3076 82.1816 97.2861 82.1435 97.272C82.1055 97.2579 82.0651 97.2515 82.0246 97.2532H82.0233C81.9827 97.2516 81.9421 97.2582 81.904 97.2725C81.866 97.2868 81.8311 97.3085 81.8016 97.3365C81.772 97.3644 81.7483 97.398 81.7319 97.4352C81.7155 97.4724 81.7067 97.5125 81.706 97.5532L80.4477 118.787C80.4351 119.015 80.3415 119.23 80.1838 119.394C80.026 119.558 79.8147 119.661 79.588 119.682L76.9114 119.95C76.7857 119.963 76.6586 119.951 76.5377 119.914C76.4167 119.877 76.3043 119.817 76.2071 119.736Z" fill="#2F2E41"/>
<path d="M82.0522 51.7689C84.9358 51.7689 87.2734 49.4313 87.2734 46.5477C87.2734 43.6641 84.9358 41.3264 82.0522 41.3264C79.1685 41.3264 76.8309 43.6641 76.8309 46.5477C76.8309 49.4313 79.1685 51.7689 82.0522 51.7689Z" fill="#FFB8B8"/>
<path d="M71.9974 85.982C71.9044 85.8764 71.8361 85.7515 71.7974 85.6162C71.7587 85.4809 71.7505 85.3388 71.7736 85.2C72.7375 79.3409 72.1942 70.7285 71.5687 64.5354C71.4054 62.8926 71.6779 61.2357 72.3586 59.7317C73.0394 58.2276 74.1044 56.9295 75.4464 55.968L78.1732 53.6308C78.3545 53.4772 78.5857 53.3954 78.8232 53.4008L85.5974 53.5943C85.8416 53.6009 86.074 53.7012 86.2465 53.8743L87.2932 56.1924L87.304 56.2003C88.5514 57.1172 89.5521 58.3289 90.2167 59.7271C90.8813 61.1253 91.1891 62.6664 91.1125 64.2126L90.1154 84.8197C90.1026 85.0593 90.0007 85.2855 89.8297 85.4538C89.6588 85.6222 89.431 85.7205 89.1913 85.7296L72.7485 86.3073C72.7379 86.3075 72.7273 86.3078 72.7168 86.3078C72.5805 86.3079 72.4459 86.279 72.3218 86.2228C72.1977 86.1666 72.0871 86.0845 71.9974 85.982Z" fill="#3F3D56"/>
<path d="M52.2748 77.3827C52.2666 77.049 52.3317 76.7175 52.4655 76.4116C52.5992 76.1057 52.7985 75.8328 53.0491 75.6123C53.2997 75.3917 53.5957 75.2288 53.9161 75.135C54.2365 75.0412 54.5736 75.0187 54.9036 75.0693L63.3782 69.1385L65.757 73.4982L56.8122 77.8382C56.6905 78.387 56.3717 78.8721 55.9163 79.2015C55.4609 79.531 54.9004 79.682 54.3411 79.6258C53.7819 79.5697 53.2626 79.3103 52.8817 78.8969C52.5009 78.4835 52.285 77.9447 52.2748 77.3827Z" fill="#FFB8B8"/>
<path d="M59.4067 78.4137C59.2824 78.3949 59.1631 78.3517 59.0556 78.2866C58.9481 78.2215 58.8546 78.1357 58.7805 78.0342L55.51 73.5784C55.3602 73.3738 55.2977 73.1181 55.3362 72.8674C55.3746 72.6167 55.5109 72.3914 55.7152 72.2411L75.0803 58.0271C75.8758 57.4433 76.8705 57.1993 77.8458 57.3489C78.3287 57.423 78.7923 57.5915 79.2101 57.8447C79.6278 58.098 79.9917 58.431 80.2808 58.8249C80.5698 59.2187 80.7785 59.6657 80.8949 60.1402C81.0112 60.6146 81.033 61.1074 80.9589 61.5903C80.8848 62.0732 80.7163 62.5368 80.4631 62.9546C80.2098 63.3724 79.8768 63.7362 79.4829 64.0253L60.1177 78.2393C59.9544 78.3598 59.7568 78.4249 59.5538 78.4249C59.5045 78.4249 59.4553 78.4211 59.4067 78.4137Z" fill="#3F3D56"/>
<path d="M82.3194 51.1957C83.0118 50.3468 82.936 49.0536 82.3803 48.1095C81.8246 47.1653 80.8812 46.5151 79.9105 46.0072C78.9398 45.4993 77.9086 45.1 76.995 44.4952C76.0815 43.8905 76.1214 41.3304 75.8781 40.2622L76.4583 40.4554C76.2353 40.1702 76.1638 39.3273 75.9408 39.0421C76.5963 39.1068 77.1004 39.7292 77.7559 39.794L77.3777 38.7786C79.6256 38.64 81.0232 40.2021 83.2711 40.0635C84.3849 39.9948 85.5945 39.9514 86.5101 40.5892C87.3057 41.1435 87.7085 42.1029 87.9728 43.0359C88.5402 45.0391 88.6284 47.283 87.6483 49.12C86.6683 50.9569 84.4093 52.1947 82.4357 51.5314L82.3194 51.1957Z" fill="#2F2E41"/>
<path d="M53.6533 124.149H134.647C134.704 124.149 134.758 124.126 134.798 124.086C134.838 124.046 134.86 123.992 134.86 123.936C134.86 123.88 134.838 123.826 134.798 123.786C134.758 123.746 134.704 123.723 134.647 123.723H53.6533C53.5969 123.723 53.5428 123.746 53.503 123.786C53.4631 123.826 53.4407 123.88 53.4407 123.936C53.4407 123.992 53.4631 124.046 53.503 124.086C53.5428 124.126 53.5969 124.149 53.6533 124.149Z" fill="#3F3D56"/>
</g>
<defs>
<filter id="filter0_i_1544_2" x="0" y="0" width="134.86" height="128.223" filterUnits="userSpaceOnUse" color-interpolation-filters="sRGB">
<feFlood flood-opacity="0" result="BackgroundImageFix"/>
<feBlend mode="normal" in="SourceGraphic" in2="BackgroundImageFix" result="shape"/>
<feColorMatrix in="SourceAlpha" type="matrix" values="0 0 0 0 0 0 0 0 0 0 0 0 0 0 0 0 0 0 127 0" result="hardAlpha"/>
<feOffset dy="4"/>
<feGaussianBlur stdDeviation="2"/>
<feComposite in2="hardAlpha" operator="arithmetic" k2="-1" k3="1"/>
<feColorMatrix type="matrix" values="0 0 0 0 0 0 0 0 0 0 0 0 0 0 0 0 0 0 0.25 0"/>
<feBlend mode="normal" in2="shape" result="effect1_innerShadow_1544_2"/>
</filter>
<clipPath id="clip0_1544_2">
<rect width="134.86" height="124.223" fill="white"/>
</clipPath>
</defs>
</svg>
